<svg width="265" height="456" viewBox="0 0 265 456" fill="none" xmlns="http://www.w3.org/2000/svg">
<path d="M228.698 161.224C227.404 160.394 225.333 158.942 222.745 157.282C212.91 150.437 196.345 138.821 184.699 138.821C180.04 138.821 176.675 140.688 174.605 144.007C172.017 148.363 177.71 158.527 181.852 165.165C182.887 166.824 183.663 168.276 184.181 169.313C185.216 171.388 186.252 173.255 187.028 175.122C192.463 186.738 198.157 198.562 202.298 211.423C202.816 212.875 203.075 214.327 203.592 215.986C205.404 222.832 207.992 231.544 213.945 235.692C216.275 237.352 218.604 238.389 220.674 239.011C221.71 239.219 222.745 239.426 223.521 239.426C230.51 239.426 235.427 232.996 240.086 226.773C241.121 225.321 242.156 223.869 243.451 222.624L244.486 221.379C262.344 199.599 273.215 186.531 240.345 168.276C237.239 166.202 233.098 163.713 228.698 161.224ZM243.451 220.55L242.415 221.794C241.38 223.246 240.086 224.698 239.051 225.943C234.651 231.959 229.992 237.974 223.521 237.974C222.745 237.974 221.969 237.767 220.933 237.767C218.863 237.352 216.792 236.315 214.722 234.655C209.028 230.714 206.698 222.209 204.887 215.571C204.369 213.912 204.11 212.46 203.592 211.008C199.451 197.939 193.757 186.116 188.063 174.499C187.287 172.84 186.252 170.766 185.216 168.691C184.699 167.654 183.922 166.202 182.887 164.543C179.263 158.527 173.311 148.155 175.64 144.214C177.711 141.102 180.558 139.443 184.699 139.443C195.828 139.443 212.133 150.852 221.71 157.49C224.298 159.357 226.369 160.809 227.663 161.431C232.063 163.92 236.204 166.409 239.309 168.069C271.403 186.323 260.791 199.184 243.451 220.55Z" fill="#C4C4C4" fill-opacity="0.4"/>
<path d="M249.921 137.991C244.227 134.672 238.533 130.938 232.58 126.997C214.204 114.966 193.24 101.275 174.346 101.275C170.723 101.275 167.099 101.898 163.476 102.935C130.347 112.892 135.006 141.103 140.958 157.075C144.582 166.824 148.982 176.366 153.382 185.701C158.558 196.487 163.993 207.689 167.617 219.098C169.946 225.943 170.981 233.203 172.017 240.256C175.381 261.622 178.487 281.95 214.204 281.95C217.051 281.95 220.157 281.743 223.263 281.535C227.404 281.121 230.769 280.706 233.616 279.876C243.192 277.387 246.039 272.823 250.18 265.77C251.474 263.696 253.027 261.207 254.839 258.718C257.686 254.776 260.792 251.043 263.897 247.309V246.272C260.533 250.213 257.168 254.154 254.062 258.303C252.251 260.792 250.698 263.281 249.404 265.356C245.262 272.201 242.415 276.764 233.098 279.046C230.251 279.669 227.145 280.291 223.004 280.498C219.898 280.706 216.792 280.913 213.945 280.913C179.005 280.913 175.899 261.829 172.534 239.634C171.499 232.581 170.205 225.321 168.134 218.475C164.511 207.067 159.076 195.865 153.899 185.079C149.499 175.744 144.841 166.202 141.476 156.66C135.782 140.895 131.123 113.306 163.734 103.35C167.099 102.312 170.723 101.898 174.346 101.898C192.981 101.898 213.687 115.588 232.063 127.412C238.016 131.353 243.71 135.087 249.662 138.406C254.062 140.895 257.686 143.177 260.533 144.836C261.568 145.459 262.862 146.081 264.156 146.703V145.874C263.121 145.251 262.086 144.836 261.05 144.214C257.945 142.555 254.321 140.48 249.921 137.991Z" fill="#C4C4C4" fill-opacity="0.4"/>
<path d="M250.439 156.245C247.333 154.586 243.451 152.304 239.051 149.815C232.839 146.288 227.145 142.347 220.933 138.406C219.639 137.576 218.087 136.539 216.275 135.294C205.922 128.242 191.687 118.492 178.487 118.492C174.864 118.492 171.499 119.322 168.393 120.774C145.617 131.975 159.334 158.942 167.617 174.914C168.652 176.781 169.428 178.648 170.205 180.308C175.64 191.509 181.075 203.125 184.958 215.156C185.734 217.438 186.511 220.135 187.287 223.039C190.91 236.107 195.828 253.947 208.251 260.377C210.322 261.414 212.392 262.037 214.722 262.244C215.498 262.244 216.016 262.451 216.792 262.451C232.063 262.451 247.074 243.99 258.203 230.299C260.274 227.81 262.086 225.528 263.639 223.661V222.624C261.827 224.698 259.756 227.188 257.427 229.884C246.557 243.367 231.286 261.622 216.534 261.622C216.016 261.622 215.239 261.622 214.722 261.414C212.651 261.207 210.581 260.585 208.51 259.547C196.346 253.324 191.428 235.485 187.805 222.624C187.028 219.72 186.252 217.023 185.475 214.742C181.593 202.503 175.899 190.887 170.723 179.685C169.946 178.026 168.911 176.159 168.134 174.292C160.111 158.32 146.652 131.768 168.652 120.774C171.499 119.322 174.864 118.7 178.228 118.7C191.169 118.7 205.145 128.242 215.498 135.294C217.051 136.332 218.604 137.369 220.157 138.406C226.369 142.555 232.322 146.288 238.274 149.815C242.416 152.304 246.557 154.586 249.662 156.245C253.804 158.527 257.686 160.601 262.086 163.091C262.603 163.298 262.862 163.505 263.38 163.713V162.883C263.121 162.676 262.862 162.468 262.345 162.468C258.721 160.601 254.58 158.32 250.439 156.245Z" fill="#C4C4C4" fill-opacity="0.4"/>
<path d="M115.853 303.316C117.405 304.768 119.994 307.05 126.982 307.465C152.864 309.124 191.945 311.821 225.074 335.883L225.333 336.09C236.721 344.388 245.78 354.759 252.509 367.205C254.321 370.524 257.427 372.599 260.791 372.599C261.827 372.599 262.603 372.391 263.638 372.184V371.354C262.603 371.769 261.827 371.976 260.791 371.976C257.685 371.976 254.838 370.109 253.027 366.998C246.297 354.552 236.98 343.973 225.592 335.676L225.333 335.468C192.204 311.198 152.864 308.709 126.982 307.05C120.253 306.635 117.664 304.56 116.37 303.108C113.006 299.582 112.747 294.396 113.006 292.737C116.629 280.083 121.029 264.318 119.476 246.894C116.629 217.646 102.135 192.546 87.9001 168.069C76.5121 148.57 63.8299 126.375 68.2298 116.418C76.2532 98.3713 108.606 72.6495 122.323 62.4852C130.864 56.0548 141.217 52.7358 152.864 52.7358C159.593 52.7358 165.287 53.773 168.91 54.8102C192.722 61.0332 226.368 75.1387 263.897 94.43V93.6003C226.368 74.3089 192.722 60.2034 169.169 54.1879C165.546 53.1507 159.593 52.1135 152.864 52.1135C140.958 52.1135 130.605 55.4325 121.805 62.0704C108.088 72.2346 75.7356 98.1638 67.7122 116.211C63.0535 126.582 75.9944 148.778 87.3824 168.484C101.359 192.754 116.111 217.853 118.958 247.101C120.511 264.318 116.111 280.083 112.488 292.737C111.97 294.189 112.488 299.789 115.853 303.316Z" fill="#C4C4C4" fill-opacity="0.4"/>
<path d="M164.769 284.647C170.722 287.136 178.746 288.381 186.51 289.418C192.204 290.248 198.157 291.077 203.075 292.529C206.18 293.359 209.545 294.811 213.169 296.263C220.674 299.167 228.957 302.486 236.721 302.486C238.274 302.486 239.568 302.279 240.862 302.071C241.121 302.071 241.639 301.864 241.898 301.864C252.768 299.167 258.721 288.173 263.897 278.009V276.142V276.35C258.721 286.721 253.027 298.337 241.898 301.034C241.639 301.034 241.121 301.242 240.862 301.242C239.568 301.449 238.274 301.656 236.721 301.656C229.215 301.656 220.933 298.337 213.686 295.433C210.063 293.981 206.698 292.737 203.592 291.7C198.675 290.248 192.722 289.418 186.769 288.588C179.004 287.551 170.981 286.514 165.287 283.817C152.605 278.216 153.899 267.845 155.193 257.058C155.711 252.702 156.228 248.346 155.969 244.405C152.605 209.971 136.558 182.382 121.029 155.623C114.041 143.592 113.523 130.316 119.476 118.285C125.946 105.424 139.923 94.8449 157.264 89.4516C162.699 87.7921 168.393 86.9624 174.087 86.9624C198.934 86.9624 222.486 102.312 243.192 115.796C249.145 119.529 254.58 123.263 260.015 126.375C261.309 127.205 262.603 127.827 263.897 128.657V127.827C262.862 127.205 261.827 126.582 260.533 125.96C255.356 122.848 249.662 119.322 243.968 115.381C223.263 101.69 199.71 86.3401 174.346 86.3401C168.393 86.3401 162.699 87.1698 157.264 88.8293C139.664 94.2226 125.688 104.802 118.958 117.87C112.747 130.109 113.264 143.384 120.511 155.623C136.04 182.175 151.828 209.763 155.193 244.197C155.452 248.139 154.934 252.495 154.417 256.851C152.864 267.845 151.57 278.839 164.769 284.647Z" fill="#C4C4C4" fill-opacity="0.4"/>
<path d="M147.946 295.641C153.123 296.678 158.299 297.715 163.476 298.545C190.652 303.523 213.945 307.879 237.239 324.889L237.757 325.304C243.192 329.245 247.333 331.112 250.698 331.112C251.215 331.112 251.733 331.112 252.251 330.905C257.427 329.867 259.756 324.267 262.603 317.006C263.121 315.969 263.38 314.725 263.897 313.688V311.613C263.121 313.273 262.345 315.14 261.827 316.799C259.239 323.852 256.651 329.452 251.992 330.282C248.627 330.905 244.227 329.038 238.274 324.681L237.757 324.267C214.204 307.257 190.652 302.901 163.734 297.715C158.817 296.885 153.64 295.848 148.205 294.811C129.311 291.077 132.417 276.764 135.523 262.866C136.817 256.851 138.37 250.628 137.852 245.442C134.747 213.497 119.476 187.153 104.724 161.639C102.912 158.527 101.1 155.623 99.2884 152.719C89.7121 137.784 81.6887 124.923 93.3356 108.95C102.135 96.9192 115.335 87.1698 128.276 77.8353C130.606 76.1758 132.935 74.5163 135.264 72.6494C140.182 68.9156 146.911 67.0487 155.193 67.0487C187.028 67.0487 236.204 94.2226 264.415 110.61V110.195C235.945 93.8077 187.287 66.8413 155.193 66.8413C146.652 66.8413 139.664 68.7082 134.747 72.6494C132.417 74.3089 130.088 75.9684 128.017 77.8353C115.076 87.3772 101.877 97.1266 93.0768 109.158C81.1711 125.338 89.7121 139.028 99.0296 153.549C100.841 156.453 102.653 159.357 104.465 162.468C119.217 187.983 134.488 214.119 137.594 246.064C138.111 251.25 136.817 257.473 135.264 263.489C131.641 277.179 128.276 291.7 147.946 295.641Z" fill="#C4C4C4" fill-opacity="0.4"/>
<path d="M228.698 452.876C232.063 454.535 237.498 455.572 243.968 455.572C249.662 455.572 256.65 454.742 263.897 453.083V451.631C256.65 453.498 249.662 454.328 243.968 454.328C238.015 454.328 232.839 453.498 229.733 451.838C214.463 443.956 207.734 430.265 200.745 415.745C194.534 403.091 188.322 390.231 175.899 381.104V380.689H175.381C161.146 370.732 141.994 365.753 116.888 365.753C92.3003 365.753 66.6772 370.524 45.9716 374.258C31.7366 376.747 19.5721 379.029 11.8076 379.029C7.14882 379.029 4.30176 378.199 3.26649 376.747C1.71357 374.673 3.00772 370.732 6.63118 365.131C24.4897 338.994 60.7244 276.557 58.1362 250.835C56.0656 230.507 43.9011 209.348 32.2543 189.02C15.1722 159.357 -2.68632 128.864 10.2546 99.8233C25.0073 66.6339 89.7121 7.30785 135.782 2.122C138.37 1.91457 141.476 1.70712 144.323 1.70712C174.346 1.70712 218.086 16.0201 263.897 36.7635V35.3114C218.086 14.568 174.346 0.462524 144.323 0.462524C141.217 0.462524 138.111 0.669968 135.523 0.877402C88.9356 6.06325 23.4544 66.0116 8.44287 99.4085C-4.7569 129.071 13.1016 159.772 30.4425 189.642C42.0894 209.971 54.2538 230.714 56.3244 250.835C58.6538 273.86 27.0779 332.149 5.07825 364.509C0.678329 370.732 -0.356916 374.88 1.71364 377.577C3.26655 379.651 6.63118 380.689 11.8076 380.689C19.831 380.689 32.2543 378.407 46.4893 375.918C67.1948 372.184 92.8179 367.413 116.888 367.413C141.735 367.413 160.37 372.184 174.346 382.141C186.51 391.06 192.981 403.921 198.934 416.575C206.181 430.888 213.169 444.786 228.698 452.876Z" fill="#C4C4C4" fill-opacity="0.4"/>
<path d="M53.7361 347.292C55.5478 349.366 60.2066 350.403 68.7477 350.403C74.1829 350.403 80.6534 349.989 88.1591 349.574C97.4766 349.159 108.088 348.536 118.959 348.536C153.64 348.536 176.934 354.345 192.463 367.206C206.957 376.125 214.98 390.646 221.969 403.506C230.51 419.064 238.015 432.547 254.321 432.547C256.133 432.547 257.944 432.34 259.756 432.132C261.05 431.925 262.344 431.717 263.638 431.303V430.265C262.086 430.68 260.791 430.888 259.497 431.095C257.686 431.303 255.874 431.51 254.321 431.51C238.792 431.51 231.545 418.234 223.263 403.092C216.275 390.231 207.992 375.503 193.498 366.376C177.71 353.515 154.158 347.499 119.217 347.499C108.347 347.499 97.7354 348.122 88.4179 348.536C80.9122 348.951 74.4417 349.366 69.0065 349.366C60.9831 349.366 56.5831 348.537 55.0302 346.67C54.2537 345.632 54.2537 344.388 55.0302 342.728C71.5946 307.465 85.3121 262.866 84.018 248.968C81.6886 224.906 68.4888 202.088 55.8067 180.1C40.2776 153.134 25.5249 127.827 34.8423 106.669C47.7833 77.2131 107.312 25.9769 139.664 22.4505C141.217 22.2431 143.029 22.2431 144.84 22.2431C169.946 22.2431 214.204 36.556 264.415 60.4109V59.1663C214.463 35.5188 170.205 21.2059 144.84 21.2059C143.029 21.2059 141.217 21.2059 139.405 21.4133C106.794 24.9397 46.748 76.5908 33.5482 106.254C23.9719 127.827 38.9835 153.549 54.5126 180.515C67.1948 202.503 80.3945 225.113 82.7239 248.968C84.018 260.999 71.5947 304.353 53.9949 342.314C52.7008 344.388 52.7008 346.047 53.7361 347.292Z" fill="#C4C4C4" fill-opacity="0.4"/>
<path d="M92.818 320.325C97.7356 325.926 107.83 326.548 121.806 327.378C123.359 327.378 124.912 327.586 126.464 327.586C130.864 327.793 135.523 328 140.441 328.208C163.217 328.83 189.358 329.453 212.651 346.67L212.91 346.877C225.851 356.004 233.616 371.976 240.345 386.289C247.333 400.602 253.027 412.841 262.603 412.841C262.862 412.841 263.121 412.841 263.38 412.841V412.219C263.121 412.219 262.862 412.219 262.603 412.219C253.804 412.219 247.851 399.98 241.121 386.082C234.392 371.769 226.628 355.797 213.428 346.462L213.169 346.255C189.616 329.038 163.476 328.208 140.441 327.586C135.523 327.378 130.864 327.378 126.464 326.963C124.912 326.756 123.359 326.756 121.806 326.756C107.83 325.926 97.9944 325.304 93.3357 319.911C88.9357 314.932 89.7122 305.39 95.4062 289.418C100.841 274.483 102.653 260.999 101.359 247.931C98.7709 221.172 84.7946 197.317 71.336 174.085C57.3598 149.815 44.16 126.997 50.8893 111.44C62.5362 85.3029 118.182 39.2526 141.217 36.7633C141.735 36.7633 142.511 36.5559 144.064 36.5559C163.476 36.5559 206.957 49.4168 263.639 77.213V76.3832C207.216 48.5871 163.476 35.9336 144.064 35.9336C142.77 35.9336 141.735 35.9336 141.217 36.141C117.923 38.6302 61.7597 85.0954 50.1128 111.232C43.1247 127.204 56.3245 150.022 70.5595 174.499C84.0181 197.525 97.7355 221.587 100.324 248.138C101.618 261.207 99.5473 274.69 94.3709 289.418C88.9357 305.805 88.4181 314.932 92.818 320.325Z" fill="#C4C4C4" fill-opacity="0.4"/>
</svg>
