<svg width="367" height="662" viewBox="0 0 367 662" fill="none" xmlns="http://www.w3.org/2000/svg">
<path d="M9.11783 561.403C12.986 493.199 67.4167 443.374 111.072 403.293L114.111 400.414C119.084 396.207 130.965 384.692 129.86 370.962C129.307 362.548 124.058 355.019 114.387 348.375C108.585 344.389 103.335 340.625 98.0858 337.303C75.4293 321.802 57.7463 309.401 30.1165 294.122C19.8935 288.586 9.94673 283.271 0.276298 278.178V279.064C9.94673 283.935 19.6172 289.25 29.5639 294.786C57.1937 310.066 75.153 322.466 97.5332 337.967C102.507 341.511 108.033 345.275 113.835 349.04C123.229 355.461 128.479 362.99 129.031 371.184C129.86 384.692 118.532 395.985 113.282 400.193L110.243 403.072C66.5878 443.153 12.1571 492.977 8.01264 561.624C7.46004 568.932 4.14447 573.361 0 574.911V575.797C4.69707 574.025 8.56524 569.596 9.11783 561.403Z" fill="#C4C4C4" fill-opacity="0.4"/>
<path d="M28.4588 562.067C32.0506 499.178 83.9947 451.567 125.716 413.479L128.755 410.601C137.596 402.629 144.504 395.543 149.754 389.564C156.108 382.035 168.266 368.305 139.807 346.161C109.138 322.466 75.982 300.544 41.1685 281.278C27.0773 273.306 13.2624 266.22 0.276367 260.02V260.905C13.2624 267.327 26.5247 274.192 40.6159 281.942C75.4294 301.208 108.585 323.131 139.254 346.825C167.16 368.527 155.556 382.035 149.201 389.342C143.951 395.321 137.044 402.407 128.202 410.379L125.163 413.258C83.1658 451.346 31.2217 498.956 27.6299 562.067C25.9721 591.298 19.3409 608.349 7.18382 615.656C4.69714 617.207 2.48675 617.871 0.276367 618.092V618.757C2.48675 618.535 4.97343 617.871 7.73641 616.099C20.1698 608.792 26.801 591.519 28.4588 562.067Z" fill="#C4C4C4" fill-opacity="0.4"/>
<path d="M365.542 112.318C360.293 95.2665 316.914 90.8377 266.628 85.5231C254.194 84.1944 241.484 82.8658 229.051 81.3157C174.068 74.451 123.782 52.3067 74.8768 30.8269C50.5626 19.9762 25.6958 9.12552 0.276367 0.0463867V1.81792C25.4195 10.6756 50.01 21.5263 74.0479 32.1555C122.953 53.6354 173.515 75.7796 228.775 82.8658C241.208 84.4159 254.194 85.7445 266.351 87.0732C313.875 91.9449 358.635 96.8166 363.608 112.76C367.476 125.161 347.307 143.984 301.717 170.557C237.893 207.538 184.291 224.81 132.899 224.81C103.888 224.81 74.8768 219.053 47.247 207.538C30.1165 200.452 14.9202 191.815 0.276367 182.958V184.951C14.6439 193.587 29.564 202.002 46.4181 208.866C74.6005 220.381 103.612 226.36 133.176 226.36C184.843 226.36 238.721 209.088 303.099 171.886C350.07 144.427 369.687 125.604 365.542 112.318Z" fill="#C4C4C4" fill-opacity="0.4"/>
<path d="M59.1278 188.936C80.1264 197.573 98.0858 201.559 115.216 201.559C133.452 201.559 149.477 197.13 167.989 192.037C178.489 189.158 190.646 185.836 204.184 183.179C211.092 181.85 217.17 181.629 221.038 181.629C223.801 181.629 226.288 181.629 228.775 181.85C230.985 181.85 233.195 182.072 235.406 182.072C246.734 182.072 255.576 179.857 265.246 169.45C271.877 162.363 274.364 156.827 276.574 151.956C279.89 144.648 282.377 138.89 296.744 130.697C300.336 128.483 305.586 126.933 310.835 125.382C319.124 122.725 326.032 120.511 326.308 116.746C326.584 113.646 322.163 110.324 312.217 105.896C300.612 100.802 283.758 100.138 268.838 100.138C262.207 100.138 255.299 100.359 248.668 100.359C242.037 100.581 234.853 100.581 228.222 100.581C213.302 100.581 202.803 99.6951 194.514 97.9236C146.438 87.7372 101.401 67.8074 61.6145 50.3134C40.8921 41.2343 20.4461 32.3766 0.276298 24.6261V25.9548C20.1698 33.4838 40.3395 42.3415 61.0619 51.4206C100.849 68.9146 146.162 88.8444 194.237 99.2522C202.803 101.024 213.302 101.91 228.498 101.91C235.13 101.91 242.313 101.688 248.944 101.688C255.576 101.467 262.483 101.467 269.114 101.467C283.758 101.467 300.336 102.131 311.664 107.224C320.782 111.21 325.203 114.31 324.926 116.968C324.65 120.068 317.743 122.282 310.283 124.497C305.033 126.047 299.783 127.818 295.915 130.033C281.271 138.448 278.508 144.648 275.193 151.734C272.982 156.606 270.496 161.92 264.141 169.007C254.747 179.193 246.182 181.186 235.406 181.186C233.195 181.186 230.985 181.186 228.775 180.965C226.288 180.965 223.801 180.743 221.038 180.743C217.17 180.743 210.815 180.965 203.908 182.293C190.369 184.951 178.212 188.272 167.713 191.151C149.201 196.244 133.176 200.451 115.216 200.451C98.0858 200.451 80.4027 196.466 59.6804 187.829C40.6158 180.079 23.4853 169.671 6.90745 159.485C4.69707 158.156 2.21038 156.606 0 155.277V156.606C1.93409 157.935 4.14447 159.042 6.07856 160.37C22.9327 170.778 40.0632 181.186 59.1278 188.936Z" fill="#C4C4C4" fill-opacity="0.4"/>
<path d="M71.8375 169.007C92.2836 177.422 112.177 181.408 133.176 181.408C144.78 181.408 169.923 177.643 191.751 171.221C210.815 165.685 233.748 156.385 233.748 143.984C233.748 129.369 198.382 121.175 177.383 116.303C172.686 115.196 168.818 114.31 166.055 113.646C128.202 102.574 90.6258 88.8445 48.0759 70.0219C31.7743 62.9357 16.0254 55.8496 0.276367 49.6492V50.3135C15.7491 56.5139 31.7743 63.6001 47.7996 70.6862C90.6258 89.2874 128.202 103.238 166.055 114.31C168.818 115.196 172.686 116.082 177.383 116.968C198.382 121.839 233.196 129.811 233.196 143.984C233.196 165.464 157.49 180.743 133.176 180.743C112.453 180.743 92.5599 176.757 72.3901 168.342C55.536 161.478 39.5107 151.513 23.7617 142.212C16.3016 137.562 8.56531 132.912 0.276367 128.261V129.147C8.28901 133.576 15.7491 138.226 23.2091 142.655C38.9581 152.177 54.9834 162.142 71.8375 169.007Z" fill="#C4C4C4" fill-opacity="0.4"/>
<path d="M80.679 155.277C98.3621 162.585 115.493 166.128 133.176 166.128C148.372 166.128 168.542 162.585 176.278 154.391C179.594 150.848 180.699 146.862 179.041 142.212C175.449 131.583 147.543 123.832 127.097 118.296C120.466 116.525 114.664 114.975 111.348 113.646C87.5865 104.788 64.3774 94.602 41.721 84.6371L39.2343 83.5299C25.6957 77.7724 12.986 72.2364 0.276298 66.9218V67.5861C12.7097 72.6793 25.4194 78.4368 38.4054 83.9728L40.8921 85.08C63.5485 95.2664 87.0339 105.453 110.795 114.31C114.387 115.639 120.19 117.189 126.821 118.961C145.885 124.054 174.897 132.026 178.212 142.434C179.594 146.862 178.765 150.627 175.449 153.949C167.989 161.699 148.096 165.242 132.899 165.242C115.493 165.242 98.3621 161.699 80.9553 154.613C65.4826 148.191 50.0099 138.891 35.0898 129.811C24.3142 123.168 12.7097 116.303 0 109.66V110.546C12.4334 117.189 24.0379 124.054 34.5372 130.476C49.7336 139.555 65.2063 148.855 80.679 155.277Z" fill="#C4C4C4" fill-opacity="0.4"/>
<path d="M89.5206 141.548C95.0466 143.762 110.519 147.748 121.847 147.748C125.992 147.748 129.031 147.306 130.965 146.198C135.386 143.984 137.32 141.769 136.768 139.776C135.939 135.126 123.229 132.247 113.006 130.033C108.861 129.147 105.27 128.261 103.059 127.597C78.745 118.518 54.9834 108.11 32.0506 98.1453L29.564 97.0381C19.6172 92.6093 9.9468 88.1804 0.276367 84.1945V85.5231C9.6705 89.5091 19.3409 93.7165 29.0114 97.9239L31.498 99.0311C54.4308 109.217 78.1924 119.625 102.507 128.483C104.717 129.369 108.309 130.033 112.453 131.14C121.847 133.133 134.557 136.012 135.11 139.998C135.386 141.548 133.728 143.541 129.86 145.534C128.202 146.42 125.163 146.863 121.571 146.863C110.796 146.863 95.3229 142.877 90.0732 140.662C76.2583 134.905 61.6145 126.047 47.247 117.411C33.7084 109.217 18.2357 99.6954 0.276367 91.2806V92.6093C17.6831 101.024 33.1558 110.325 46.4181 118.518C60.7856 126.933 75.4294 136.012 89.5206 141.548Z" fill="#C4C4C4" fill-opacity="0.4"/>
<path d="M48.0759 562.953C51.3915 505.599 100.849 460.425 140.359 423.887L143.399 421.008C190.646 377.827 188.712 362.547 166.608 345.054C142.294 325.788 104.164 297 52.2204 268.213C34.5373 258.469 17.1305 249.39 0.276367 241.418V242.747C16.8542 250.719 33.9847 259.577 51.3915 269.099C103.059 297.886 141.188 326.674 165.503 345.718C187.054 362.769 188.712 377.384 142.294 420.123L139.254 423.001C99.4673 459.539 50.01 504.935 46.6944 562.732C43.3789 616.985 17.9594 632.929 0.276367 637.358V638.465C18.512 634.258 44.7603 618.092 48.0759 562.953Z" fill="#C4C4C4" fill-opacity="0.4"/>
<path d="M0.276298 217.503C93.3887 259.798 193.961 326.896 212.197 360.333C223.249 380.485 196.448 404.4 162.74 434.738C124.334 469.283 76.8108 512.243 73.7716 563.617C70.1797 626.507 31.2217 652.194 0 659.945V661.495C31.7743 653.744 71.8375 627.614 75.4294 563.617C78.4686 512.686 125.716 469.947 163.845 435.624C198.106 404.843 224.907 380.485 213.578 359.669C195.619 326.231 94.2176 258.248 0.276298 215.953V217.503Z" fill="#C4C4C4" fill-opacity="0.4"/>
</svg>
