<svg width="612" height="382" viewBox="0 0 612 382" fill="none" xmlns="http://www.w3.org/2000/svg">
<g opacity="0.4">
<path d="M575.322 35.0603C571.732 35.0603 568.143 35.0603 564.829 35.0603C561.516 35.0603 558.202 35.0603 554.889 35.0603C536.113 35.0603 521.203 35.9455 504.636 39.9288C496.076 42.1418 487.793 45.24 480.061 48.5594C467.084 53.8706 454.658 58.9604 439.748 58.9604C437.263 58.9604 434.778 58.7391 432.293 58.5178C421.524 57.1901 413.241 52.1002 405.233 47.2317C396.398 41.6992 388.114 36.3881 376.241 36.3881C375.137 36.3881 374.032 36.3881 372.928 36.6094C365.749 37.2733 354.152 42.3631 342.831 47.453C335.652 50.7724 328.749 53.8706 324.055 55.1984C317.152 57.1901 311.63 58.2965 307.764 58.9604C296.167 61.1734 294.786 62.0586 288.988 79.0985C287.331 83.7457 286.227 88.1717 285.122 92.5977C280.981 108.531 277.943 120.924 256.682 133.095C242.324 141.062 224.377 145.045 201.459 145.045C178.817 145.045 155.071 141.283 134.086 137.964C123.042 136.193 112.825 134.644 105.094 133.98C100.676 133.538 93.7731 133.316 86.594 133.316C66.4375 133.316 42.6914 139.291 41.0347 147.701C40.2063 151.684 44.072 157.88 67.542 163.855L70.027 164.519C158.661 187.313 220.235 216.967 283.19 266.98C300.585 280.701 313.839 287.118 324.883 287.118C327.368 287.118 330.13 286.676 332.339 286.012C344.212 282.471 352.771 270.521 362.711 256.8C367.958 249.719 373.756 241.531 380.659 233.785C414.069 196.165 461.837 168.503 515.404 156.331C531.143 152.791 546.606 150.799 561.24 150.799C609.008 150.799 642.694 169.609 674.448 188.862V187.534C642.694 168.281 609.008 149.914 561.24 149.914C546.606 149.914 530.867 151.684 515.128 155.446C461.285 167.839 413.241 195.501 379.555 233.343C372.652 241.088 366.853 249.276 361.607 256.358C351.667 270.078 343.383 281.807 332.062 285.126C329.853 285.79 327.368 286.233 324.883 286.233C314.115 286.233 301.137 279.815 284.294 266.316C221.339 216.082 159.489 186.428 70.5792 163.413L68.0942 162.749C50.6988 158.323 41.5869 153.012 42.6914 147.922C44.072 140.841 65.0569 134.423 86.8702 134.423C93.7731 134.423 100.676 134.644 105.094 135.087C112.825 135.751 123.042 137.3 134.086 139.07C155.071 142.39 179.093 146.373 201.735 146.373C224.929 146.373 243.429 142.39 257.787 134.202C279.324 122.03 282.637 109.195 286.779 93.0402C287.884 88.8356 288.988 84.4096 290.645 79.7624C296.167 62.7225 297.272 62.5012 308.316 60.2882C312.182 59.6243 317.428 58.5178 324.607 56.5262C329.577 54.9771 336.48 51.8789 343.659 48.7807C354.152 43.9122 366.301 38.6011 373.204 37.9372C374.308 37.9372 375.413 37.7159 376.241 37.7159C387.562 37.7159 395.845 42.8057 404.405 48.3382C412.413 53.428 420.696 58.7391 432.017 59.8456C434.502 60.0669 436.987 60.2882 439.472 60.2882C454.658 60.2882 467.636 54.9771 480.337 49.8872C488.069 46.7891 496.076 43.4696 504.636 41.2566C520.927 37.2733 535.837 36.3881 554.613 36.3881C557.926 36.3881 561.24 36.3881 564.553 36.3881C568.143 36.3881 571.456 36.3881 575.322 36.3881C592.165 36.3881 607.351 37.9372 621.433 41.2566C639.381 45.4613 657.052 50.9937 674.448 57.8539V56.5262C657.052 49.8872 639.381 44.3548 621.709 40.1501C607.627 36.8307 592.441 35.0603 575.322 35.0603Z" fill="#C4C4C4"/>
<path d="M575.321 57.4114C552.128 57.4114 527.277 60.7308 501.322 64.2716C471.777 68.255 441.405 72.4596 408.823 72.4596C406.614 72.4596 404.129 72.4596 401.92 72.4596C390.599 72.2383 381.211 70.6892 372.651 69.3615C365.472 68.255 359.122 67.1485 353.047 67.1485C338.689 67.1485 328.196 73.1235 316.6 87.9505C311.077 95.032 306.935 103.663 303.07 111.851C296.167 126.456 288.988 141.505 273.249 150.578C267.727 153.676 257.234 156.11 246.19 158.544C226.861 162.97 205.048 168.06 202.011 178.461C198.421 191.518 231.832 209.443 249.779 219.18C253.093 220.95 256.13 222.499 258.063 223.606C279.324 235.999 296.719 244.408 313.286 244.408C315.495 244.408 317.704 244.187 319.913 243.965C333.167 241.974 345.316 234.45 357.741 220.287C394.741 178.461 448.031 147.922 507.673 134.202C525.896 129.997 544.12 127.784 561.239 127.784C609.008 127.784 644.075 143.275 674.448 160.315V159.43C644.075 142.39 609.008 126.899 561.239 126.899C543.844 126.899 525.896 129.112 507.397 133.317C447.479 147.037 394.189 177.797 357.189 219.623C344.764 233.786 332.891 241.088 319.913 243.08C317.704 243.301 315.495 243.523 313.286 243.523C296.995 243.523 279.6 235.335 258.615 222.942C256.682 221.836 253.921 220.287 250.331 218.516C232.384 209 199.25 191.297 202.839 178.683C205.6 168.724 227.414 163.634 246.466 159.208C257.51 156.774 268.003 154.34 273.525 151.02C289.54 141.947 296.719 126.678 303.622 112.072C307.488 103.884 311.629 95.2533 317.152 88.1718C328.473 73.5661 338.965 67.5911 352.771 67.5911C358.846 67.5911 364.92 68.4763 372.099 69.804C380.659 71.1318 390.047 72.6809 401.368 72.9022C403.577 72.9022 406.062 72.9022 408.271 72.9022C440.852 72.9022 471.225 68.6976 500.77 64.7142C527.001 61.1734 551.575 57.854 574.769 57.854C589.127 57.854 601.829 59.1818 613.426 61.8373C633.582 66.4846 653.463 73.3448 674.171 81.7541V81.0902C653.739 72.9022 633.858 66.042 613.702 61.3947C602.657 58.7392 589.956 57.4114 575.321 57.4114Z" fill="#C4C4C4"/>
<path d="M575.322 72.9023C553.784 72.9023 529.762 76.2218 504.359 79.5413C473.986 83.7459 442.785 87.9505 408.823 87.9505C406.338 87.9505 403.853 87.9505 401.368 87.9505C399.435 87.9505 397.226 87.9506 395.293 87.7293C390.047 87.508 385.353 87.508 380.659 87.508C351.39 87.508 333.167 92.3765 321.018 117.604C313.562 133.538 304.727 151.684 284.294 163.413C278.495 166.732 272.697 169.609 267.451 172.043C255.578 177.797 246.19 182.444 245.638 188.641C245.361 194.394 252.54 201.476 269.384 211.213C285.398 220.729 298.652 225.155 309.697 225.155C310.801 225.155 311.63 225.155 312.734 225.155C328.749 224.048 339.794 213.205 353.323 199.706C359.674 193.509 366.577 186.649 374.86 180.01C410.756 151.242 454.658 130.218 502.427 119.375C522.583 114.949 542.464 112.736 561.516 112.736C608.456 112.736 644.627 126.456 674.724 142.168V141.283C644.627 125.571 608.456 112.072 561.516 112.072C542.464 112.072 522.583 114.506 502.427 118.932C454.658 129.776 410.479 150.799 374.584 179.789C366.301 186.428 359.122 193.509 353.047 199.484C339.517 212.983 328.749 223.384 313.01 224.712C312.182 224.712 311.077 224.712 309.973 224.712C298.928 224.712 285.951 220.065 270.212 210.77C253.645 201.033 246.466 194.394 246.742 188.641C247.018 182.666 256.406 178.24 268.003 172.486C273.249 170.052 279.048 167.175 284.846 163.855C305.555 152.127 314.391 133.759 321.846 117.826C333.719 92.8191 351.667 88.1719 380.659 88.1719C385.353 88.1719 390.323 88.1718 395.293 88.3931C397.226 88.3931 399.159 88.3931 401.368 88.6144C403.853 88.6144 406.338 88.6144 408.823 88.6144C443.061 88.6144 474.263 84.4098 504.635 80.2051C530.038 76.6644 553.784 73.5662 575.322 73.5662C587.747 73.5662 598.792 74.6727 608.732 76.8857C630.269 81.7542 652.082 89.7209 674.724 99.2367V98.5728C652.082 89.2783 630.269 81.3116 609.008 76.4431C599.068 74.0088 588.023 72.9023 575.322 72.9023Z" fill="#C4C4C4"/>
<path d="M575.322 88.1716C555.441 88.1716 532.247 91.2698 507.673 94.5893C476.748 98.7939 444.442 103.22 408.823 103.22C406.338 103.22 403.577 103.22 401.092 103.22L395.017 102.999C390.047 102.999 385.353 102.777 380.935 102.777C342.279 102.777 340.346 119.817 338.413 137.964C337.309 147.922 336.204 158.102 329.301 166.732C326.816 169.831 320.465 173.814 313.563 178.019C298.928 186.87 282.085 196.829 290.093 206.345C293.406 210.328 297.548 212.541 302.518 212.541C305.003 212.541 308.04 211.877 310.801 210.771C323.779 205.46 337.861 189.305 348.906 176.469C355.256 169.167 360.779 162.97 363.816 161.421C366.853 159.872 370.443 159.651 373.48 159.651C374.584 159.651 375.965 159.651 377.07 159.651C378.174 159.651 379.555 159.651 380.659 159.651C385.077 159.651 390.047 159.208 394.465 156.11C399.711 152.348 400.263 147.258 401.092 142.611C401.644 138.406 402.196 134.202 405.786 130.882C416.554 120.481 454.382 113.4 479.233 108.531C486.688 107.203 493.039 105.875 497.733 104.769C519.546 99.6791 541.083 97.2448 561.792 97.2448C607.904 97.2448 644.903 109.416 675 123.801V122.473C644.903 108.088 607.904 95.9171 561.792 95.9171C540.807 95.9171 519.27 98.5726 497.18 103.441C492.487 104.548 486.136 105.654 478.681 107.203C451.897 112.293 415.45 119.153 404.405 129.776C400.539 133.538 399.987 137.964 399.435 142.168C398.883 147.037 398.331 151.463 393.36 155.004C389.495 157.88 384.801 158.323 380.659 158.323C379.555 158.323 378.174 158.323 377.07 158.323C375.965 158.323 374.584 158.323 373.48 158.323C370.167 158.323 366.577 158.544 362.988 160.093C359.674 161.643 354.428 167.839 347.801 175.363C337.309 187.534 322.95 203.91 309.973 209.222C302.242 212.541 296.167 211.213 291.197 205.238C284.018 196.608 300.033 187.092 314.391 178.461C321.846 174.035 327.921 170.273 330.682 166.954C337.585 158.102 338.689 147.701 340.07 137.742C342.003 119.375 343.935 103.662 381.211 103.662C385.629 103.662 390.323 103.662 395.293 103.884L401.368 104.105C403.853 104.105 406.614 104.105 409.099 104.105C444.994 104.105 477.024 99.6791 508.225 95.4745C532.8 92.155 555.717 89.0568 575.598 89.0568C586.09 89.0568 595.478 89.942 603.486 91.9337C625.851 97.2448 649.873 106.539 674.724 117.162V115.834C649.873 105.433 626.403 96.1383 603.762 91.0485C595.478 89.2781 586.09 88.1716 575.322 88.1716Z" fill="#C4C4C4"/>
<path d="M241.22 114.506C231.832 119.817 219.13 122.473 202.011 122.473C182.131 122.473 159.765 118.932 139.885 115.834C128.288 114.063 117.243 112.293 108.407 111.408C103.989 110.965 92.1164 110.08 77.7583 110.08C50.9749 110.08 16.4603 112.957 4.86335 126.899C-0.106762 132.874 -0.382871 140.619 4.31112 149.471C6.52006 153.676 12.0424 155.889 17.5648 158.102C21.9826 159.872 26.4005 161.642 28.8856 164.298C31.9229 167.396 33.5795 172.043 35.2362 176.248C37.4452 182.002 39.6541 187.977 44.9003 191.518C51.251 195.944 58.4301 197.935 67.2659 197.935C73.3404 197.935 79.6911 197.05 85.7657 195.944C91.8403 195.058 97.9149 193.952 103.713 193.952C109.512 193.952 114.482 194.837 118.9 196.829C129.944 201.255 134.362 207.451 139.056 213.426C144.855 221.172 150.377 228.474 168.601 231.794C206.429 238.875 216.921 246.399 242.048 264.325C245.361 266.538 248.675 269.193 252.541 271.849C261.652 278.266 268.279 285.569 274.63 292.429C280.428 298.626 286.227 305.265 293.958 311.018C303.346 318.321 312.182 321.419 320.741 324.739C332.062 328.943 343.107 332.927 352.771 346.426L354.428 348.639C366.853 365.679 379.278 381.612 387.01 381.612C388.114 381.612 389.219 381.17 390.047 380.506C392.808 378.072 393.636 371.654 392.256 360.81C391.427 354.393 385.905 348.86 380.383 343.328C374.308 337.353 368.786 331.82 369.062 325.624C369.338 318.321 375.137 314.559 380.935 310.797C385.353 307.92 389.771 305.043 392.256 300.617C398.607 289.774 399.987 280.037 401.644 270.521C403.577 257.464 405.509 245.072 420.144 231.13C446.375 206.123 483.098 187.092 523.412 177.797C536.941 174.699 549.367 173.15 561.516 173.15C602.933 173.15 632.478 191.075 663.955 210.328C667.545 212.541 671.134 214.754 674.724 216.746V214.533C671.41 212.541 668.373 210.549 665.06 208.779C633.306 189.526 603.485 171.38 561.516 171.38C549.09 171.38 536.389 172.929 522.859 176.027C481.994 185.321 444.994 204.574 418.487 229.802C403.577 244.186 401.644 256.8 399.435 270.078C398.054 279.373 396.398 288.889 390.323 299.511C387.838 303.716 383.696 306.592 379.554 309.248C373.48 313.231 367.405 317.215 366.853 325.181C366.577 332.042 372.652 338.017 378.45 343.992C383.696 349.303 389.219 354.835 390.047 360.589C391.427 373.424 389.771 377.629 388.39 379.178C387.838 379.621 387.286 379.842 386.734 379.842C379.002 379.842 362.987 357.27 355.808 347.754L354.152 345.541C343.935 331.599 332.891 327.616 321.294 323.411C312.734 320.313 304.174 317.215 295.063 310.133C287.607 304.379 281.533 297.962 276.01 291.765C269.384 284.684 262.757 277.381 253.645 270.964C249.779 268.308 246.466 265.874 243.153 263.439C217.75 245.293 207.257 237.769 168.877 230.687C151.482 227.368 146.235 220.508 140.713 212.984C136.019 206.787 131.325 200.591 120.004 195.944C115.31 193.952 110.064 193.067 103.989 193.067C97.9149 193.067 91.5642 193.952 85.4896 195.058C79.415 195.944 73.3405 197.05 67.542 197.05C59.2585 197.05 52.6316 195.058 46.2809 191.075C41.5869 187.756 39.378 182.223 37.1691 176.469C35.5124 172.043 33.5795 167.396 30.5423 164.077C27.7811 160.979 23.0871 159.208 18.6692 157.438C13.423 155.225 8.17675 153.233 6.24393 149.471C1.82606 141.062 2.10221 133.98 6.7962 128.227C17.8409 114.949 51.8033 112.072 78.3105 112.072C92.6686 112.072 104.542 112.957 108.683 113.4C117.519 114.063 128.564 115.834 140.161 117.826C160.041 120.924 182.407 124.686 202.563 124.686C219.959 124.686 233.212 122.03 242.876 116.498C267.175 102.777 259.996 82.1966 253.369 62.2799C246.19 41.0353 238.735 18.9055 268.555 4.52118C272.145 2.7508 276.839 1.86561 282.637 1.86561C300.309 1.86561 325.435 9.61102 349.734 17.1351C370.719 23.7741 390.875 29.9704 403.853 30.1917C405.786 30.1917 407.718 30.1917 409.375 30.1917C437.263 30.1917 465.427 26.4296 492.763 22.6676C520.098 18.9055 548.262 15.1435 575.874 15.1435C595.202 15.1435 612.873 16.9138 629.441 20.8972C644.903 24.438 660.09 29.0852 675 34.3964V32.626C660.09 27.3148 645.179 22.8889 629.993 19.3481C613.15 15.5861 595.478 13.5944 575.874 13.5944C547.986 13.5944 519.822 17.3564 492.486 21.1185C465.427 24.8806 437.263 28.6426 409.375 28.6426C407.442 28.6426 405.786 28.6426 403.853 28.6426C391.151 28.4213 371.547 22.225 350.562 15.8074C326.264 8.28324 300.861 0.316528 282.637 0.316528C276.287 0.316528 271.316 1.20172 267.451 3.1934C236.526 18.2416 243.981 40.814 251.436 62.7225C257.787 82.1966 264.137 101.45 241.22 114.506Z" fill="#C4C4C4"/>
</g>
</svg>
