<svg width="46" height="45" viewBox="0 0 46 45" fill="none" xmlns="http://www.w3.org/2000/svg">
<rect x="1.5" y="1.5" width="43" height="42" rx="14.5" stroke="white" stroke-width="3"/>
<path d="M31.3608 7.23046C29.8786 7.0725 28.3889 6.99563 26.8983 7.00019C21.9567 7.00019 18.8857 10.162 18.8857 15.2517V18.7072H14.7347C14.5398 18.7072 14.353 18.785 14.2152 18.9234C14.0774 19.0618 14 19.2495 14 19.4453V25.1283C14 25.3241 14.0774 25.5118 14.2152 25.6502C14.353 25.7886 14.5398 25.8664 14.7347 25.8664H18.8857V37.2619C18.8857 37.4577 18.9631 37.6454 19.1009 37.7838C19.2387 37.9222 19.4256 38 19.6204 38H25.4656C25.6605 38 25.8474 37.9222 25.9851 37.7838C26.1229 37.6454 26.2003 37.4577 26.2003 37.2619V25.8664H30.3381C30.5165 25.8665 30.6888 25.8013 30.8229 25.6832C30.957 25.565 31.0438 25.4019 31.0669 25.2243L31.7972 19.5412C31.8108 19.4371 31.8021 19.3312 31.7717 19.2307C31.7413 19.1302 31.6899 19.0373 31.6209 18.9584C31.5519 18.8794 31.4669 18.8162 31.3716 18.7729C31.2764 18.7296 31.173 18.7072 31.0684 18.7072H26.2003V15.8155C26.2003 14.3837 26.4869 13.7859 28.2692 13.7859H31.2653C31.4602 13.7859 31.647 13.7081 31.7848 13.5697C31.9226 13.4313 32 13.2436 32 13.0478V7.96262C32.0001 7.78343 31.9353 7.61033 31.8177 7.47561C31.7001 7.34089 31.5377 7.25376 31.3608 7.23046V7.23046ZM30.5306 12.3083L28.2678 12.3098C25.0983 12.3098 24.7309 14.3114 24.7309 15.8155V19.4468C24.7309 19.6422 24.8081 19.8298 24.9456 19.9681C25.0831 20.1065 25.2696 20.1844 25.4642 20.1848H30.2338L29.6916 24.3917H25.4656C25.2708 24.3917 25.0839 24.4695 24.9461 24.6079C24.8083 24.7463 24.7309 24.934 24.7309 25.1298V36.5224H20.3551V25.1298C20.3551 24.934 20.2777 24.7463 20.1399 24.6079C20.0021 24.4695 19.8153 24.3917 19.6204 24.3917H15.4709V20.1848H19.6204C19.8153 20.1848 20.0021 20.1071 20.1399 19.9686C20.2777 19.8302 20.3551 19.6425 20.3551 19.4468V15.2517C20.3551 11.0093 22.8016 8.4763 26.8983 8.4763C28.3809 8.4763 29.7195 8.55749 30.5306 8.62834V12.3083V12.3083Z" fill="white"/>
</svg>
