<svg width="35" height="34" viewBox="0 0 35 34" fill="none" xmlns="http://www.w3.org/2000/svg">
<path d="M33.4733 5.38408L28.8139 0.862642C28.2451 0.310211 27.4839 0 26.6789 0C25.8739 0 25.1126 0.305962 24.5439 0.862642L19.5257 5.72828C18.957 6.28072 18.6376 7.02437 18.6376 7.80627C18.6376 8.59243 18.9526 9.32758 19.5257 9.88426L23.4457 13.696C22.5527 15.717 21.2696 17.5533 19.6657 19.1056C18.0601 20.6737 16.1832 21.9103 14.1007 22.7857L10.1807 18.9739C9.61192 18.4214 8.85066 18.1112 8.04566 18.1112C7.6486 18.1098 7.25523 18.1854 6.88862 18.3335C6.52201 18.4816 6.18953 18.6993 5.91065 18.9739L0.888129 23.8395C0.319377 24.392 0 25.1356 0 25.9175C0 26.7037 0.315001 27.4388 0.888129 27.9955L5.54315 32.5169C6.5144 33.4603 7.85316 34 9.22691 34C9.51129 34 9.78692 33.9788 10.0669 33.932C15.8594 33.0056 21.6082 30.0097 26.2501 25.5053C30.8876 20.9924 33.9676 15.4086 34.9302 9.77803C35.2058 8.18023 34.6545 6.53568 33.4733 5.38408V5.38408ZM31.8283 9.27234C30.9751 14.2825 28.2014 19.2798 24.0232 23.3381C19.8451 27.3963 14.7044 30.0905 9.54629 30.9191C8.89879 31.0254 8.23379 30.8129 7.76128 30.3582L3.18939 25.9175L8.03691 21.2048L13.2782 26.3042L13.3176 26.3425L14.2626 26.0025C17.1279 24.9793 19.7299 23.3631 21.8882 21.266C24.0465 19.1688 25.7095 16.641 26.762 13.8575L27.112 12.9396L21.827 7.81052L26.6745 3.09786L31.2464 7.53856C31.7189 7.9975 31.9376 8.64342 31.8283 9.27234Z" fill="white"/>
</svg>
