<svg width="46" height="45" viewBox="0 0 46 45" fill="none" xmlns="http://www.w3.org/2000/svg">
<path d="M23 12.1875C20.9151 12.1875 18.8769 12.7923 17.1434 13.9255C15.4098 15.0586 14.0586 16.6692 13.2608 18.5536C12.4629 20.4379 12.2541 22.5114 12.6609 24.5119C13.0676 26.5123 14.0716 28.3498 15.5459 29.792C17.0202 31.2343 18.8985 32.2164 20.9434 32.6143C22.9883 33.0123 25.1079 32.808 27.0341 32.0275C28.9604 31.247 30.6067 29.9252 31.7651 28.2293C32.9234 26.5334 33.5417 24.5396 33.5417 22.5C33.5417 19.765 32.431 17.1419 30.4541 15.208C28.4771 13.274 25.7958 12.1875 23 12.1875ZM23 30.9375C21.2941 30.9375 19.6266 30.4426 18.2082 29.5155C16.7898 28.5884 15.6843 27.2706 15.0315 25.7289C14.3787 24.1871 14.2079 22.4906 14.5407 20.8539C14.8735 19.2172 15.695 17.7138 16.9012 16.5338C18.1074 15.3538 19.6443 14.5502 21.3173 14.2246C22.9904 13.8991 24.7246 14.0662 26.3006 14.7048C27.8767 15.3434 29.2237 16.4248 30.1714 17.8124C31.1192 19.1999 31.625 20.8312 31.625 22.5C31.625 24.7378 30.7163 26.8839 29.0988 28.4662C27.4813 30.0485 25.2875 30.9375 23 30.9375ZM33.5417 0H12.4583C9.15418 0 5.98535 1.28404 3.64896 3.56964C1.31257 5.85524 0 8.95517 0 12.1875V32.8125C0 34.413 0.322244 35.9978 0.948334 37.4765C1.57442 38.9551 2.4921 40.2986 3.64896 41.4304C5.98535 43.716 9.15418 45 12.4583 45H33.5417C35.1777 45 36.7977 44.6848 38.3093 44.0723C39.8208 43.4598 41.1942 42.5621 42.351 41.4304C43.5079 40.2986 44.4256 38.9551 45.0517 37.4765C45.6778 35.9978 46 34.413 46 32.8125V12.1875C46 10.587 45.6778 9.0022 45.0517 7.52355C44.4256 6.04489 43.5079 4.70135 42.351 3.56964C41.1942 2.43792 39.8208 1.5402 38.3093 0.927718C36.7977 0.315239 35.1777 0 33.5417 0ZM44.0833 32.8125C44.0833 35.5475 42.9727 38.1706 40.9958 40.1045C39.0188 42.0385 36.3375 43.125 33.5417 43.125H12.4583C9.66251 43.125 6.9812 42.0385 5.00425 40.1045C3.0273 38.1706 1.91667 35.5475 1.91667 32.8125V12.1875C1.91667 9.45245 3.0273 6.82943 5.00425 4.89546C6.9812 2.96149 9.66251 1.875 12.4583 1.875H33.5417C36.3375 1.875 39.0188 2.96149 40.9958 4.89546C42.9727 6.82943 44.0833 9.45245 44.0833 12.1875V32.8125ZM37.375 10.3125C37.375 10.6833 37.2626 11.0459 37.052 11.3542C36.8414 11.6625 36.542 11.9029 36.1918 12.0448C35.8416 12.1867 35.4562 12.2238 35.0844 12.1515C34.7126 12.0791 34.3711 11.9005 34.103 11.6383C33.835 11.3761 33.6524 11.042 33.5785 10.6783C33.5045 10.3146 33.5425 9.93758 33.6876 9.59497C33.8326 9.25236 34.0783 8.95952 34.3935 8.75349C34.7087 8.54747 35.0793 8.4375 35.4583 8.4375C35.9667 8.4375 36.4542 8.63504 36.8136 8.98668C37.1731 9.33831 37.375 9.81522 37.375 10.3125Z" fill="white"/>
</svg>
