<svg width="46" height="45" viewBox="0 0 46 45" fill="none" xmlns="http://www.w3.org/2000/svg">
<rect x="1.5" y="1.5" width="43" height="42" rx="14.5" stroke="white" stroke-width="3"/>
<path d="M36.44 16.6874C34.5092 16.6874 32.6575 15.9353 31.2923 14.5966C29.927 13.2579 29.16 11.4423 29.16 9.5491C29.16 9.40347 29.101 9.2638 28.996 9.16083C28.891 9.05785 28.7485 9 28.6 9H23C22.8515 9 22.709 9.05785 22.604 9.16083C22.499 9.2638 22.44 9.40347 22.44 9.5491V27.1202C22.4394 27.7096 22.2776 28.288 21.9715 28.7952C21.6653 29.3024 21.226 29.7198 20.6994 30.0038C20.1727 30.2879 19.578 30.4282 18.9772 30.4102C18.3764 30.3921 17.7916 30.2164 17.2836 29.9013C16.7757 29.5862 16.3632 29.1433 16.0893 28.6187C15.8153 28.0941 15.6899 27.507 15.7261 26.9187C15.7623 26.3304 15.9588 25.7624 16.2951 25.2739C16.6313 24.7854 17.0951 24.3943 17.638 24.1414C17.7328 24.096 17.813 24.0258 17.8698 23.9386C17.9266 23.8515 17.9578 23.7506 17.96 23.6472V17.9366C17.9613 17.8556 17.9443 17.7754 17.9102 17.7016C17.8762 17.6279 17.8259 17.5624 17.763 17.5099C17.7001 17.4574 17.6262 17.4192 17.5465 17.3981C17.4668 17.3769 17.3833 17.3733 17.302 17.3875C15.4147 17.7191 13.6629 18.5717 12.2523 19.8451C10.8418 21.1186 9.83088 22.7601 9.3383 24.5771C8.84572 26.3941 8.89188 28.3112 9.47136 30.1033C10.0508 31.8955 11.1396 33.4884 12.6099 34.6952C14.0802 35.902 15.871 36.6725 17.7722 36.9165C19.6734 37.1604 21.6061 36.8675 23.3436 36.0723C25.081 35.2771 26.5511 34.0125 27.5814 32.4268C28.6116 30.8412 29.1592 29.0003 29.16 27.1202V21.2723C31.35 22.5898 33.8707 23.2837 36.44 23.2765C36.5885 23.2765 36.731 23.2187 36.836 23.1157C36.941 23.0127 37 22.8731 37 22.7274V17.2365C37 17.0908 36.941 16.9512 36.836 16.8482C36.731 16.7452 36.5885 16.6874 36.44 16.6874ZM35.88 22.1646C33.3731 22.0719 30.951 21.25 28.922 19.8035C28.8391 19.7463 28.7419 19.7123 28.6408 19.7051C28.5397 19.6978 28.4385 19.7176 28.348 19.7623C28.2548 19.8084 28.1766 19.879 28.1221 19.9663C28.0677 20.0537 28.0393 20.1542 28.04 20.2565V27.1202C28.0392 28.7632 27.5685 30.3731 26.6814 31.7669C25.7943 33.1608 24.5263 34.2828 23.0215 35.0056C21.5167 35.7284 19.8354 36.0229 18.1685 35.8558C16.5015 35.6886 14.9158 35.0665 13.5914 34.06C12.2669 33.0536 11.2568 31.7031 10.6758 30.162C10.0948 28.6209 9.96622 26.951 10.3046 25.3418C10.6429 23.7327 11.4346 22.2488 12.5899 21.0587C13.7451 19.8686 15.2176 19.02 16.84 18.6092V23.3177C16.1589 23.7033 15.5933 24.2579 15.2001 24.9258C14.8069 25.5936 14.5999 26.3512 14.6 27.1224C14.6001 27.8936 14.8072 28.6511 15.2005 29.3189C15.5939 29.9867 16.1596 30.5412 16.8408 30.9267C17.522 31.3121 18.2946 31.5149 19.0811 31.5148C19.8676 31.5146 20.6402 31.3114 21.3212 30.9256C22.0022 30.5398 22.5676 29.985 22.9606 29.317C23.3536 28.649 23.5603 27.8914 23.56 27.1202V10.0982H28.054C28.1944 12.088 29.0641 13.9608 30.5024 15.3711C31.9407 16.7814 33.8507 17.6341 35.88 17.7718V22.1646Z" fill="white"/>
</svg>
