<svg width="517" height="396" viewBox="0 0 517 396" fill="none" xmlns="http://www.w3.org/2000/svg">
<mask id="path-1-outside-1_439_90" maskUnits="userSpaceOnUse" x="3" y="237" width="514" height="66" fill="black">
<rect fill="white" x="3" y="237" width="514" height="66"/>
<path d="M46.6083 238H57.6028L37.0356 285.43C31.9806 297.044 23.798 302.517 12.4876 301.848V292.088C16.2788 292.453 19.3117 291.936 21.5865 290.538C23.8612 289.078 25.6936 286.616 27.0837 283.15L5 238H15.9945L32.107 271.657L46.6083 238Z"/>
<path d="M113.982 238V301.848H103.082V248.033H76.07V301.848H65.1704V238H113.982Z"/>
<path d="M151.73 238C157.986 238 163.199 240.007 167.369 244.02C171.602 248.033 173.719 253.019 173.719 258.979C173.719 264.877 171.602 269.863 167.369 273.937C163.199 277.951 157.986 279.957 151.73 279.957H138.177V301.848H127.277V238H151.73ZM151.73 270.106C153.31 270.106 154.763 269.833 156.09 269.286C157.48 268.738 158.681 267.978 159.692 267.005C160.703 265.971 161.461 264.786 161.966 263.448C162.535 262.11 162.819 260.62 162.819 258.979C162.819 257.337 162.535 255.847 161.966 254.509C161.461 253.171 160.703 252.016 159.692 251.043C158.681 250.01 157.48 249.219 156.09 248.672C154.763 248.124 153.31 247.851 151.73 247.851H138.177V270.106H151.73Z"/>
<path d="M219.738 301.848L215.093 288.987H186.849L182.205 301.848H170.357L194.431 238H207.511L231.49 301.848H219.738ZM190.451 279.136H211.492L200.971 250.314L190.451 279.136Z"/>
<path d="M277.674 268.738C280.581 270.198 282.855 272.204 284.498 274.758C286.141 277.312 286.962 280.261 286.962 283.606C286.962 288.835 285.035 293.183 281.181 296.649C277.263 300.115 272.556 301.848 267.059 301.848H238.625V238H264.974C270.408 238 274.989 239.703 278.717 243.108C282.508 246.513 284.403 250.709 284.403 255.695C284.403 261.168 282.16 265.515 277.674 268.738ZM249.524 247.851V264.634H264.974C267.375 264.634 269.397 263.843 271.039 262.262C272.682 260.62 273.504 258.614 273.504 256.242C273.504 253.871 272.682 251.895 271.039 250.314C269.397 248.672 267.375 247.851 264.974 247.851H249.524ZM267.059 291.997C269.586 291.997 271.703 291.146 273.409 289.443C275.178 287.741 276.063 285.612 276.063 283.058C276.063 280.505 275.178 278.376 273.409 276.674C271.703 274.971 269.586 274.12 267.059 274.12H249.524V291.997H267.059Z"/>
<path d="M289.22 292.18C291.305 292.484 293.106 292.423 294.623 291.997C296.202 291.511 297.498 290.599 298.509 289.261C299.583 287.923 300.373 286.099 300.878 283.788C301.384 281.417 301.636 278.467 301.636 274.941V238H346.088V301.848H335.188V248.033H312.536V274.758C312.536 280.413 311.904 285.156 310.64 288.987C309.44 292.757 307.702 295.615 305.427 297.561C303.153 299.446 300.689 300.723 298.035 301.392C295.444 302 292.506 302.152 289.22 301.848V292.18Z"/>
<path d="M405.1 238V301.848H394.2V278.589H383.679L367.662 301.848H355.34L372.211 277.677C367.788 276.4 364.186 273.998 361.406 270.471C358.626 266.884 357.236 262.901 357.236 258.523C357.236 252.807 359.289 247.972 363.396 244.02C367.567 240.007 372.622 238 378.561 238H405.1ZM394.2 269.194V247.851H378.561C377.108 247.851 375.749 248.124 374.486 248.672C373.222 249.219 372.116 249.979 371.168 250.952C370.221 251.925 369.462 253.08 368.894 254.418C368.388 255.695 368.135 257.063 368.135 258.523C368.135 259.982 368.388 261.381 368.894 262.718C369.462 263.995 370.221 265.12 371.168 266.093C372.116 267.066 373.222 267.826 374.486 268.373C375.749 268.921 377.108 269.194 378.561 269.194H394.2Z"/>
<path d="M461.498 238V248.033H442.826V301.848H431.927V248.033H413.16V238H461.498Z"/>
<path d="M494.011 259.891C500.267 259.891 505.479 261.928 509.65 266.002C513.883 270.015 516 274.971 516 280.869C516 286.829 513.883 291.815 509.65 295.828C505.479 299.841 500.267 301.848 494.011 301.848H469.558V238H480.458V259.891H494.011ZM494.011 291.997C495.591 291.997 497.044 291.724 498.371 291.176C499.761 290.629 500.962 289.869 501.973 288.896C502.984 287.862 503.742 286.676 504.247 285.339C504.816 284.001 505.1 282.511 505.1 280.869C505.1 279.228 504.816 277.738 504.247 276.4C503.742 275.062 502.984 273.907 501.973 272.934C500.962 271.9 499.761 271.11 498.371 270.562C497.044 270.015 495.591 269.742 494.011 269.742H480.458V291.997H494.011Z"/>
</mask>
<path d="M46.6083 238H57.6028L37.0356 285.43C31.9806 297.044 23.798 302.517 12.4876 301.848V292.088C16.2788 292.453 19.3117 291.936 21.5865 290.538C23.8612 289.078 25.6936 286.616 27.0837 283.15L5 238H15.9945L32.107 271.657L46.6083 238Z" fill="black"/>
<path d="M113.982 238V301.848H103.082V248.033H76.07V301.848H65.1704V238H113.982Z" fill="black"/>
<path d="M151.73 238C157.986 238 163.199 240.007 167.369 244.02C171.602 248.033 173.719 253.019 173.719 258.979C173.719 264.877 171.602 269.863 167.369 273.937C163.199 277.951 157.986 279.957 151.73 279.957H138.177V301.848H127.277V238H151.73ZM151.73 270.106C153.31 270.106 154.763 269.833 156.09 269.286C157.48 268.738 158.681 267.978 159.692 267.005C160.703 265.971 161.461 264.786 161.966 263.448C162.535 262.11 162.819 260.62 162.819 258.979C162.819 257.337 162.535 255.847 161.966 254.509C161.461 253.171 160.703 252.016 159.692 251.043C158.681 250.01 157.48 249.219 156.09 248.672C154.763 248.124 153.31 247.851 151.73 247.851H138.177V270.106H151.73Z" fill="black"/>
<path d="M219.738 301.848L215.093 288.987H186.849L182.205 301.848H170.357L194.431 238H207.511L231.49 301.848H219.738ZM190.451 279.136H211.492L200.971 250.314L190.451 279.136Z" fill="black"/>
<path d="M277.674 268.738C280.581 270.198 282.855 272.204 284.498 274.758C286.141 277.312 286.962 280.261 286.962 283.606C286.962 288.835 285.035 293.183 281.181 296.649C277.263 300.115 272.556 301.848 267.059 301.848H238.625V238H264.974C270.408 238 274.989 239.703 278.717 243.108C282.508 246.513 284.403 250.709 284.403 255.695C284.403 261.168 282.16 265.515 277.674 268.738ZM249.524 247.851V264.634H264.974C267.375 264.634 269.397 263.843 271.039 262.262C272.682 260.62 273.504 258.614 273.504 256.242C273.504 253.871 272.682 251.895 271.039 250.314C269.397 248.672 267.375 247.851 264.974 247.851H249.524ZM267.059 291.997C269.586 291.997 271.703 291.146 273.409 289.443C275.178 287.741 276.063 285.612 276.063 283.058C276.063 280.505 275.178 278.376 273.409 276.674C271.703 274.971 269.586 274.12 267.059 274.12H249.524V291.997H267.059Z" fill="black"/>
<path d="M289.22 292.18C291.305 292.484 293.106 292.423 294.623 291.997C296.202 291.511 297.498 290.599 298.509 289.261C299.583 287.923 300.373 286.099 300.878 283.788C301.384 281.417 301.636 278.467 301.636 274.941V238H346.088V301.848H335.188V248.033H312.536V274.758C312.536 280.413 311.904 285.156 310.64 288.987C309.44 292.757 307.702 295.615 305.427 297.561C303.153 299.446 300.689 300.723 298.035 301.392C295.444 302 292.506 302.152 289.22 301.848V292.18Z" fill="black"/>
<path d="M405.1 238V301.848H394.2V278.589H383.679L367.662 301.848H355.34L372.211 277.677C367.788 276.4 364.186 273.998 361.406 270.471C358.626 266.884 357.236 262.901 357.236 258.523C357.236 252.807 359.289 247.972 363.396 244.02C367.567 240.007 372.622 238 378.561 238H405.1ZM394.2 269.194V247.851H378.561C377.108 247.851 375.749 248.124 374.486 248.672C373.222 249.219 372.116 249.979 371.168 250.952C370.221 251.925 369.462 253.08 368.894 254.418C368.388 255.695 368.135 257.063 368.135 258.523C368.135 259.982 368.388 261.381 368.894 262.718C369.462 263.995 370.221 265.12 371.168 266.093C372.116 267.066 373.222 267.826 374.486 268.373C375.749 268.921 377.108 269.194 378.561 269.194H394.2Z" fill="black"/>
<path d="M461.498 238V248.033H442.826V301.848H431.927V248.033H413.16V238H461.498Z" fill="black"/>
<path d="M494.011 259.891C500.267 259.891 505.479 261.928 509.65 266.002C513.883 270.015 516 274.971 516 280.869C516 286.829 513.883 291.815 509.65 295.828C505.479 299.841 500.267 301.848 494.011 301.848H469.558V238H480.458V259.891H494.011ZM494.011 291.997C495.591 291.997 497.044 291.724 498.371 291.176C499.761 290.629 500.962 289.869 501.973 288.896C502.984 287.862 503.742 286.676 504.247 285.339C504.816 284.001 505.1 282.511 505.1 280.869C505.1 279.228 504.816 277.738 504.247 276.4C503.742 275.062 502.984 273.907 501.973 272.934C500.962 271.9 499.761 271.11 498.371 270.562C497.044 270.015 495.591 269.742 494.011 269.742H480.458V291.997H494.011Z" fill="black"/>
<path d="M46.6083 238H57.6028L37.0356 285.43C31.9806 297.044 23.798 302.517 12.4876 301.848V292.088C16.2788 292.453 19.3117 291.936 21.5865 290.538C23.8612 289.078 25.6936 286.616 27.0837 283.15L5 238H15.9945L32.107 271.657L46.6083 238Z" stroke="black" stroke-width="2" mask="url(#path-1-outside-1_439_90)"/>
<path d="M113.982 238V301.848H103.082V248.033H76.07V301.848H65.1704V238H113.982Z" stroke="black" stroke-width="2" mask="url(#path-1-outside-1_439_90)"/>
<path d="M151.73 238C157.986 238 163.199 240.007 167.369 244.02C171.602 248.033 173.719 253.019 173.719 258.979C173.719 264.877 171.602 269.863 167.369 273.937C163.199 277.951 157.986 279.957 151.73 279.957H138.177V301.848H127.277V238H151.73ZM151.73 270.106C153.31 270.106 154.763 269.833 156.09 269.286C157.48 268.738 158.681 267.978 159.692 267.005C160.703 265.971 161.461 264.786 161.966 263.448C162.535 262.11 162.819 260.62 162.819 258.979C162.819 257.337 162.535 255.847 161.966 254.509C161.461 253.171 160.703 252.016 159.692 251.043C158.681 250.01 157.48 249.219 156.09 248.672C154.763 248.124 153.31 247.851 151.73 247.851H138.177V270.106H151.73Z" stroke="black" stroke-width="2" mask="url(#path-1-outside-1_439_90)"/>
<path d="M219.738 301.848L215.093 288.987H186.849L182.205 301.848H170.357L194.431 238H207.511L231.49 301.848H219.738ZM190.451 279.136H211.492L200.971 250.314L190.451 279.136Z" stroke="black" stroke-width="2" mask="url(#path-1-outside-1_439_90)"/>
<path d="M277.674 268.738C280.581 270.198 282.855 272.204 284.498 274.758C286.141 277.312 286.962 280.261 286.962 283.606C286.962 288.835 285.035 293.183 281.181 296.649C277.263 300.115 272.556 301.848 267.059 301.848H238.625V238H264.974C270.408 238 274.989 239.703 278.717 243.108C282.508 246.513 284.403 250.709 284.403 255.695C284.403 261.168 282.16 265.515 277.674 268.738ZM249.524 247.851V264.634H264.974C267.375 264.634 269.397 263.843 271.039 262.262C272.682 260.62 273.504 258.614 273.504 256.242C273.504 253.871 272.682 251.895 271.039 250.314C269.397 248.672 267.375 247.851 264.974 247.851H249.524ZM267.059 291.997C269.586 291.997 271.703 291.146 273.409 289.443C275.178 287.741 276.063 285.612 276.063 283.058C276.063 280.505 275.178 278.376 273.409 276.674C271.703 274.971 269.586 274.12 267.059 274.12H249.524V291.997H267.059Z" stroke="black" stroke-width="2" mask="url(#path-1-outside-1_439_90)"/>
<path d="M289.22 292.18C291.305 292.484 293.106 292.423 294.623 291.997C296.202 291.511 297.498 290.599 298.509 289.261C299.583 287.923 300.373 286.099 300.878 283.788C301.384 281.417 301.636 278.467 301.636 274.941V238H346.088V301.848H335.188V248.033H312.536V274.758C312.536 280.413 311.904 285.156 310.64 288.987C309.44 292.757 307.702 295.615 305.427 297.561C303.153 299.446 300.689 300.723 298.035 301.392C295.444 302 292.506 302.152 289.22 301.848V292.18Z" stroke="black" stroke-width="2" mask="url(#path-1-outside-1_439_90)"/>
<path d="M405.1 238V301.848H394.2V278.589H383.679L367.662 301.848H355.34L372.211 277.677C367.788 276.4 364.186 273.998 361.406 270.471C358.626 266.884 357.236 262.901 357.236 258.523C357.236 252.807 359.289 247.972 363.396 244.02C367.567 240.007 372.622 238 378.561 238H405.1ZM394.2 269.194V247.851H378.561C377.108 247.851 375.749 248.124 374.486 248.672C373.222 249.219 372.116 249.979 371.168 250.952C370.221 251.925 369.462 253.08 368.894 254.418C368.388 255.695 368.135 257.063 368.135 258.523C368.135 259.982 368.388 261.381 368.894 262.718C369.462 263.995 370.221 265.12 371.168 266.093C372.116 267.066 373.222 267.826 374.486 268.373C375.749 268.921 377.108 269.194 378.561 269.194H394.2Z" stroke="black" stroke-width="2" mask="url(#path-1-outside-1_439_90)"/>
<path d="M461.498 238V248.033H442.826V301.848H431.927V248.033H413.16V238H461.498Z" stroke="black" stroke-width="2" mask="url(#path-1-outside-1_439_90)"/>
<path d="M494.011 259.891C500.267 259.891 505.479 261.928 509.65 266.002C513.883 270.015 516 274.971 516 280.869C516 286.829 513.883 291.815 509.65 295.828C505.479 299.841 500.267 301.848 494.011 301.848H469.558V238H480.458V259.891H494.011ZM494.011 291.997C495.591 291.997 497.044 291.724 498.371 291.176C499.761 290.629 500.962 289.869 501.973 288.896C502.984 287.862 503.742 286.676 504.247 285.339C504.816 284.001 505.1 282.511 505.1 280.869C505.1 279.228 504.816 277.738 504.247 276.4C503.742 275.062 502.984 273.907 501.973 272.934C500.962 271.9 499.761 271.11 498.371 270.562C497.044 270.015 495.591 269.742 494.011 269.742H480.458V291.997H494.011Z" stroke="black" stroke-width="2" mask="url(#path-1-outside-1_439_90)"/>
<path d="M31.6026 352.346C38.7624 352.346 44.477 354.301 48.7466 358.212C53.0818 362.058 55.2494 367.154 55.2494 373.5C55.2494 379.846 53.0818 384.974 48.7466 388.885C44.4113 392.731 38.6967 394.654 31.6026 394.654H5V327.346H49.3377V342.154H20.7645V352.346H31.6026ZM31.6026 380.231C36.8575 380.231 39.4849 377.987 39.4849 373.5C39.4849 369.013 36.8575 366.769 31.6026 366.769H20.7645V380.231H31.6026Z" fill="#6777FF"/>
<path d="M120.483 385.904C113.454 392.635 104.981 396 95.0626 396C85.0784 396 76.6049 392.635 69.6423 385.904C62.6796 379.173 59.1983 370.872 59.1983 361C59.1983 351.128 62.6796 342.827 69.6423 336.096C76.6049 329.365 85.0784 326 95.0626 326C104.981 326 113.454 329.365 120.483 336.096C127.446 342.827 130.927 351.128 130.927 361C130.927 370.872 127.446 379.173 120.483 385.904ZM80.6774 375.423C84.4872 379.141 89.2822 381 95.0626 381C100.777 381 105.539 379.141 109.349 375.423C113.225 371.641 115.162 366.833 115.162 361C115.162 355.167 113.225 350.359 109.349 346.577C105.539 342.859 100.777 341 95.0626 341C89.2822 341 84.4872 342.859 80.6774 346.577C76.8677 350.295 74.9628 355.103 74.9628 361C74.9628 366.897 76.8677 371.705 80.6774 375.423Z" fill="#6777FF"/>
<path d="M178.229 394.654V358.115L151.626 394.654H139.803V327.346H155.567V363.885L182.17 327.346H193.993V394.654H178.229Z" fill="#6777FF"/>
<path d="M243.25 327.346H259.014V394.654H243.25V367.923H221.574V394.654H205.809V327.346H221.574V353.115H243.25V327.346Z" fill="#6777FF"/>
<path d="M310.264 327.346V342.154H286.618V394.654H270.853V327.346H310.264Z" fill="#6777FF"/>
<path d="M371.518 385.904C364.49 392.635 356.016 396 346.098 396C336.114 396 327.64 392.635 320.678 385.904C313.715 379.173 310.234 370.872 310.234 361C310.234 351.128 313.715 342.827 320.678 336.096C327.64 329.365 336.114 326 346.098 326C356.016 326 364.49 329.365 371.518 336.096C378.481 342.827 381.962 351.128 381.962 361C381.962 370.872 378.481 379.173 371.518 385.904ZM331.713 375.423C335.523 379.141 340.318 381 346.098 381C351.813 381 356.575 379.141 360.385 375.423C364.26 371.641 366.198 366.833 366.198 361C366.198 355.167 364.26 350.359 360.385 346.577C356.575 342.859 351.813 341 346.098 341C340.318 341 335.523 342.859 331.713 346.577C327.903 350.295 325.998 355.103 325.998 361C325.998 366.897 327.903 371.705 331.713 375.423Z" fill="#6777FF"/>
<path d="M459.808 327.346V394.654H444.044V355.519L426.21 384.077H424.436L406.603 355.519V394.654H390.838V327.346H406.603L425.323 357.25L444.044 327.346H459.808Z" fill="#6777FF"/>
<path d="M484.471 370.615C484.471 368.756 484.865 367.09 485.653 365.615C486.441 364.077 487.394 362.667 488.511 361.385C489.693 360.038 490.974 358.788 492.353 357.635C493.733 356.417 494.981 355.231 496.097 354.077C497.28 352.923 498.265 351.737 499.053 350.519C499.841 349.301 500.235 347.987 500.235 346.577C500.235 342.859 497.805 341 492.944 341C488.215 341 484.668 343.692 482.303 349.077L468.706 341.481C470.874 336.609 474.158 332.827 478.559 330.135C483.026 327.378 488.018 326 493.536 326C499.579 326 504.833 327.731 509.3 331.192C513.767 334.654 516 339.333 516 345.231C516 348.756 515.179 351.769 513.537 354.269C511.895 356.769 510.088 358.949 508.118 360.808C506.147 362.667 504.341 364.365 502.699 365.904C501.057 367.442 500.235 369.013 500.235 370.615H484.471ZM498.955 393.308C497.115 395.103 494.915 396 492.353 396C489.791 396 487.591 395.103 485.752 393.308C483.913 391.513 482.993 389.365 482.993 386.865C482.993 384.365 483.913 382.218 485.752 380.423C487.591 378.628 489.791 377.731 492.353 377.731C494.915 377.731 497.115 378.628 498.955 380.423C500.794 382.218 501.713 384.365 501.713 386.865C501.713 389.365 500.794 391.513 498.955 393.308Z" fill="#6777FF"/>
<g filter="url(#filter0_d_439_90)">
<path d="M100.639 75.14C113.273 83.3533 119.59 94.94 119.59 109.9C119.59 123.247 114.815 134.1 105.266 142.46C95.7171 150.82 83.8908 155 69.7874 155H5V1H65.3801C79.0428 1 90.5753 5.10667 99.9775 13.32C109.38 21.3867 114.081 31.9467 114.081 45C114.081 57.4667 109.6 67.5133 100.639 75.14ZM40.2585 34V61.28H65.3801C69.3467 61.28 72.5788 60.0333 75.0762 57.54C77.5737 54.9 78.8224 51.6 78.8224 47.64C78.8224 43.68 77.5737 40.4533 75.0762 37.96C72.5788 35.32 69.3467 34 65.3801 34H40.2585ZM69.7874 122C74.1948 122 77.7206 120.68 80.365 118.04C83.0094 115.253 84.3316 111.66 84.3316 107.26C84.3316 102.86 83.0094 99.34 80.365 96.7C77.7206 93.9133 74.1948 92.52 69.7874 92.52H40.2585V122H69.7874Z" fill="#6777FF"/>
<path d="M137.133 155V1H172.392V49.4H195.53C210.809 49.4 223.59 54.5333 233.874 64.8C244.304 75.2133 249.52 87.68 249.52 102.2C249.52 116.72 244.304 129.187 233.874 139.6C223.59 149.867 210.809 155 195.53 155H137.133ZM262.742 155V1H298V155H262.742ZM172.392 122H195.53C200.966 122 205.447 120.093 208.972 116.28C212.498 112.467 214.261 107.773 214.261 102.2C214.261 96.6267 212.498 91.9333 208.972 88.12C205.447 84.3067 200.966 82.4 195.53 82.4H172.392V122Z" fill="#6777FF"/>
<path d="M4.5 155V155.5H5H69.7874C83.9975 155.5 95.945 151.285 105.596 142.836C115.259 134.376 120.09 123.382 120.09 109.9C120.09 94.9898 113.871 83.3686 101.466 75.0861C110.211 67.4122 114.581 57.3684 114.581 45C114.581 31.8106 109.823 21.1092 100.305 12.9421C90.803 4.64233 79.1507 0.5 65.3801 0.5H5H4.5V1V155ZM74.713 38.3036L74.7179 38.3088L74.723 38.3139C77.1147 40.7016 78.3224 43.795 78.3224 47.64C78.3224 51.4821 77.116 54.6536 74.7179 57.1912C72.3268 59.5757 69.2295 60.78 65.3801 60.78H40.7585V34.5H65.3801C69.2233 34.5 72.3192 35.7732 74.713 38.3036ZM80.0023 97.0442L80.0022 97.0443L80.0117 97.0538C82.5456 99.5835 83.8316 102.967 83.8316 107.26C83.8316 111.549 82.5472 115.012 80.0069 117.691C77.4734 120.218 74.0851 121.5 69.7874 121.5H40.7585V93.02H69.7874C74.0797 93.02 77.4665 94.372 80.0023 97.0442ZM136.633 155V155.5H137.133H195.53C210.934 155.5 223.844 150.319 234.227 139.954C244.75 129.448 250.02 116.855 250.02 102.2C250.02 87.545 244.75 74.9517 234.227 64.4462C223.844 54.0807 210.934 48.9 195.53 48.9H172.892V1V0.5H172.392H137.133H136.633V1V155ZM262.242 155V155.5H262.742H298H298.5V155V1V0.5H298H262.742H262.242V1V155ZM195.53 121.5H172.892V82.9H195.53C200.834 82.9 205.179 84.7537 208.605 88.4594C212.039 92.1732 213.761 96.7424 213.761 102.2C213.761 107.658 212.039 112.227 208.605 115.941C205.179 119.646 200.834 121.5 195.53 121.5Z" stroke="black"/>
</g>
<mask id="path-5-outside-2_439_90" maskUnits="userSpaceOnUse" x="4" y="177" width="295" height="38" fill="black">
<rect fill="white" x="4" y="177" width="295" height="38"/>
<path d="M30.5829 178.645V213.355H24.8702V184.099H10.7127V213.355H5V178.645H30.5829Z"/>
<path d="M50.3673 178.645C53.6459 178.645 56.378 179.736 58.5638 181.917C60.7826 184.099 61.892 186.81 61.892 190.05C61.892 193.256 60.7826 195.967 58.5638 198.182C56.378 200.364 53.6459 201.455 50.3673 201.455H43.2637V213.355H37.551V178.645H50.3673ZM50.3673 196.099C51.1952 196.099 51.9569 195.95 52.6524 195.653C53.381 195.355 54.0102 194.942 54.54 194.413C55.0699 193.851 55.4673 193.207 55.7323 192.479C56.0303 191.752 56.1793 190.942 56.1793 190.05C56.1793 189.157 56.0303 188.347 55.7323 187.62C55.4673 186.893 55.0699 186.264 54.54 185.736C54.0102 185.174 53.381 184.744 52.6524 184.446C51.9569 184.149 51.1952 184 50.3673 184H43.2637V196.099H50.3673Z"/>
<path d="M95.6209 208.793C92.1436 212.264 87.8881 214 82.8543 214C77.8205 214 73.5484 212.264 70.038 208.793C66.5607 205.289 64.8221 201.025 64.8221 196C64.8221 190.975 66.5607 186.727 70.038 183.256C73.5484 179.752 77.8205 178 82.8543 178C87.8881 178 92.1436 179.752 95.6209 183.256C99.1313 186.727 100.887 190.975 100.887 196C100.887 201.025 99.1313 205.289 95.6209 208.793ZM74.0617 204.926C76.4793 207.273 79.4101 208.446 82.8543 208.446C86.3316 208.446 89.2459 207.273 91.5972 204.926C93.9816 202.545 95.1738 199.57 95.1738 196C95.1738 192.43 93.9816 189.471 91.5972 187.124C89.2459 184.744 86.3316 183.554 82.8543 183.554C79.377 183.554 76.4462 184.744 74.0617 187.124C71.7104 189.471 70.5348 192.43 70.5348 196C70.5348 199.537 71.7104 202.512 74.0617 204.926Z"/>
<path d="M119.261 192.033C122.474 192.033 125.14 193.041 127.259 195.058C129.379 197.074 130.438 199.62 130.438 202.694C130.438 205.769 129.379 208.314 127.259 210.331C125.14 212.347 122.474 213.355 119.261 213.355H106.097V178.645H127.458V184.099H111.81V192.033H119.261ZM119.261 208C120.851 208 122.159 207.521 123.186 206.562C124.212 205.57 124.726 204.281 124.726 202.694C124.726 201.107 124.212 199.835 123.186 198.876C122.159 197.884 120.851 197.388 119.261 197.388H111.81V208H119.261Z"/>
<path d="M163.925 208.793C160.447 212.264 156.192 214 151.158 214C146.124 214 141.852 212.264 138.342 208.793C134.865 205.289 133.126 201.025 133.126 196C133.126 190.975 134.865 186.727 138.342 183.256C141.852 179.752 146.124 178 151.158 178C156.192 178 160.447 179.752 163.925 183.256C167.435 186.727 169.19 190.975 169.19 196C169.19 201.025 167.435 205.289 163.925 208.793ZM142.366 204.926C144.783 207.273 147.714 208.446 151.158 208.446C154.635 208.446 157.55 207.273 159.901 204.926C162.285 202.545 163.478 199.57 163.478 196C163.478 192.43 162.285 189.471 159.901 187.124C157.55 184.744 154.635 183.554 151.158 183.554C147.681 183.554 144.75 184.744 142.366 187.124C140.014 189.471 138.839 192.43 138.839 196C138.839 199.537 140.014 202.512 142.366 204.926Z"/>
<path d="M194.867 195.355C196.391 196.149 197.583 197.24 198.444 198.628C199.305 200.017 199.736 201.62 199.736 203.438C199.736 206.281 198.726 208.645 196.705 210.529C194.652 212.413 192.185 213.355 189.304 213.355H174.401V178.645H188.211C191.059 178.645 193.46 179.57 195.414 181.421C197.401 183.273 198.394 185.554 198.394 188.264C198.394 191.24 197.219 193.603 194.867 195.355ZM180.114 184V193.124H188.211C189.469 193.124 190.529 192.694 191.39 191.835C192.251 190.942 192.682 189.851 192.682 188.562C192.682 187.273 192.251 186.198 191.39 185.339C190.529 184.446 189.469 184 188.211 184H180.114ZM189.304 208C190.629 208 191.738 207.537 192.632 206.612C193.559 205.686 194.023 204.529 194.023 203.14C194.023 201.752 193.559 200.595 192.632 199.669C191.738 198.744 190.629 198.281 189.304 198.281H180.114V208H189.304Z"/>
<path d="M227.373 213.355L224.939 206.364H210.135L207.701 213.355H201.492L214.109 178.645H220.965L233.532 213.355H227.373ZM212.023 201.008H223.051L217.537 185.339L212.023 201.008Z"/>
<path d="M234.683 208.099C235.776 208.264 236.719 208.231 237.514 208C238.342 207.736 239.021 207.24 239.551 206.512C240.114 205.785 240.528 204.793 240.793 203.537C241.058 202.248 241.19 200.645 241.19 198.727V178.645H264.488V213.355H258.775V184.099H246.903V198.628C246.903 201.702 246.572 204.281 245.909 206.364C245.28 208.413 244.369 209.967 243.177 211.025C241.985 212.05 240.694 212.744 239.303 213.107C237.945 213.438 236.405 213.521 234.683 213.355V208.099Z"/>
<path d="M292.287 213.355V189.802L275.894 213.355H271.424V178.645H277.136V202.198L293.529 178.645H298V213.355H292.287Z"/>
</mask>
<path d="M30.5829 178.645V213.355H24.8702V184.099H10.7127V213.355H5V178.645H30.5829Z" fill="black"/>
<path d="M50.3673 178.645C53.6459 178.645 56.378 179.736 58.5638 181.917C60.7826 184.099 61.892 186.81 61.892 190.05C61.892 193.256 60.7826 195.967 58.5638 198.182C56.378 200.364 53.6459 201.455 50.3673 201.455H43.2637V213.355H37.551V178.645H50.3673ZM50.3673 196.099C51.1952 196.099 51.9569 195.95 52.6524 195.653C53.381 195.355 54.0102 194.942 54.54 194.413C55.0699 193.851 55.4673 193.207 55.7323 192.479C56.0303 191.752 56.1793 190.942 56.1793 190.05C56.1793 189.157 56.0303 188.347 55.7323 187.62C55.4673 186.893 55.0699 186.264 54.54 185.736C54.0102 185.174 53.381 184.744 52.6524 184.446C51.9569 184.149 51.1952 184 50.3673 184H43.2637V196.099H50.3673Z" fill="black"/>
<path d="M95.6209 208.793C92.1436 212.264 87.8881 214 82.8543 214C77.8205 214 73.5484 212.264 70.038 208.793C66.5607 205.289 64.8221 201.025 64.8221 196C64.8221 190.975 66.5607 186.727 70.038 183.256C73.5484 179.752 77.8205 178 82.8543 178C87.8881 178 92.1436 179.752 95.6209 183.256C99.1313 186.727 100.887 190.975 100.887 196C100.887 201.025 99.1313 205.289 95.6209 208.793ZM74.0617 204.926C76.4793 207.273 79.4101 208.446 82.8543 208.446C86.3316 208.446 89.2459 207.273 91.5972 204.926C93.9816 202.545 95.1738 199.57 95.1738 196C95.1738 192.43 93.9816 189.471 91.5972 187.124C89.2459 184.744 86.3316 183.554 82.8543 183.554C79.377 183.554 76.4462 184.744 74.0617 187.124C71.7104 189.471 70.5348 192.43 70.5348 196C70.5348 199.537 71.7104 202.512 74.0617 204.926Z" fill="black"/>
<path d="M119.261 192.033C122.474 192.033 125.14 193.041 127.259 195.058C129.379 197.074 130.438 199.62 130.438 202.694C130.438 205.769 129.379 208.314 127.259 210.331C125.14 212.347 122.474 213.355 119.261 213.355H106.097V178.645H127.458V184.099H111.81V192.033H119.261ZM119.261 208C120.851 208 122.159 207.521 123.186 206.562C124.212 205.57 124.726 204.281 124.726 202.694C124.726 201.107 124.212 199.835 123.186 198.876C122.159 197.884 120.851 197.388 119.261 197.388H111.81V208H119.261Z" fill="black"/>
<path d="M163.925 208.793C160.447 212.264 156.192 214 151.158 214C146.124 214 141.852 212.264 138.342 208.793C134.865 205.289 133.126 201.025 133.126 196C133.126 190.975 134.865 186.727 138.342 183.256C141.852 179.752 146.124 178 151.158 178C156.192 178 160.447 179.752 163.925 183.256C167.435 186.727 169.19 190.975 169.19 196C169.19 201.025 167.435 205.289 163.925 208.793ZM142.366 204.926C144.783 207.273 147.714 208.446 151.158 208.446C154.635 208.446 157.55 207.273 159.901 204.926C162.285 202.545 163.478 199.57 163.478 196C163.478 192.43 162.285 189.471 159.901 187.124C157.55 184.744 154.635 183.554 151.158 183.554C147.681 183.554 144.75 184.744 142.366 187.124C140.014 189.471 138.839 192.43 138.839 196C138.839 199.537 140.014 202.512 142.366 204.926Z" fill="black"/>
<path d="M194.867 195.355C196.391 196.149 197.583 197.24 198.444 198.628C199.305 200.017 199.736 201.62 199.736 203.438C199.736 206.281 198.726 208.645 196.705 210.529C194.652 212.413 192.185 213.355 189.304 213.355H174.401V178.645H188.211C191.059 178.645 193.46 179.57 195.414 181.421C197.401 183.273 198.394 185.554 198.394 188.264C198.394 191.24 197.219 193.603 194.867 195.355ZM180.114 184V193.124H188.211C189.469 193.124 190.529 192.694 191.39 191.835C192.251 190.942 192.682 189.851 192.682 188.562C192.682 187.273 192.251 186.198 191.39 185.339C190.529 184.446 189.469 184 188.211 184H180.114ZM189.304 208C190.629 208 191.738 207.537 192.632 206.612C193.559 205.686 194.023 204.529 194.023 203.14C194.023 201.752 193.559 200.595 192.632 199.669C191.738 198.744 190.629 198.281 189.304 198.281H180.114V208H189.304Z" fill="black"/>
<path d="M227.373 213.355L224.939 206.364H210.135L207.701 213.355H201.492L214.109 178.645H220.965L233.532 213.355H227.373ZM212.023 201.008H223.051L217.537 185.339L212.023 201.008Z" fill="black"/>
<path d="M234.683 208.099C235.776 208.264 236.719 208.231 237.514 208C238.342 207.736 239.021 207.24 239.551 206.512C240.114 205.785 240.528 204.793 240.793 203.537C241.058 202.248 241.19 200.645 241.19 198.727V178.645H264.488V213.355H258.775V184.099H246.903V198.628C246.903 201.702 246.572 204.281 245.909 206.364C245.28 208.413 244.369 209.967 243.177 211.025C241.985 212.05 240.694 212.744 239.303 213.107C237.945 213.438 236.405 213.521 234.683 213.355V208.099Z" fill="black"/>
<path d="M292.287 213.355V189.802L275.894 213.355H271.424V178.645H277.136V202.198L293.529 178.645H298V213.355H292.287Z" fill="black"/>
<path d="M30.5829 178.645V213.355H24.8702V184.099H10.7127V213.355H5V178.645H30.5829Z" stroke="black" stroke-width="2" mask="url(#path-5-outside-2_439_90)"/>
<path d="M50.3673 178.645C53.6459 178.645 56.378 179.736 58.5638 181.917C60.7826 184.099 61.892 186.81 61.892 190.05C61.892 193.256 60.7826 195.967 58.5638 198.182C56.378 200.364 53.6459 201.455 50.3673 201.455H43.2637V213.355H37.551V178.645H50.3673ZM50.3673 196.099C51.1952 196.099 51.9569 195.95 52.6524 195.653C53.381 195.355 54.0102 194.942 54.54 194.413C55.0699 193.851 55.4673 193.207 55.7323 192.479C56.0303 191.752 56.1793 190.942 56.1793 190.05C56.1793 189.157 56.0303 188.347 55.7323 187.62C55.4673 186.893 55.0699 186.264 54.54 185.736C54.0102 185.174 53.381 184.744 52.6524 184.446C51.9569 184.149 51.1952 184 50.3673 184H43.2637V196.099H50.3673Z" stroke="black" stroke-width="2" mask="url(#path-5-outside-2_439_90)"/>
<path d="M95.6209 208.793C92.1436 212.264 87.8881 214 82.8543 214C77.8205 214 73.5484 212.264 70.038 208.793C66.5607 205.289 64.8221 201.025 64.8221 196C64.8221 190.975 66.5607 186.727 70.038 183.256C73.5484 179.752 77.8205 178 82.8543 178C87.8881 178 92.1436 179.752 95.6209 183.256C99.1313 186.727 100.887 190.975 100.887 196C100.887 201.025 99.1313 205.289 95.6209 208.793ZM74.0617 204.926C76.4793 207.273 79.4101 208.446 82.8543 208.446C86.3316 208.446 89.2459 207.273 91.5972 204.926C93.9816 202.545 95.1738 199.57 95.1738 196C95.1738 192.43 93.9816 189.471 91.5972 187.124C89.2459 184.744 86.3316 183.554 82.8543 183.554C79.377 183.554 76.4462 184.744 74.0617 187.124C71.7104 189.471 70.5348 192.43 70.5348 196C70.5348 199.537 71.7104 202.512 74.0617 204.926Z" stroke="black" stroke-width="2" mask="url(#path-5-outside-2_439_90)"/>
<path d="M119.261 192.033C122.474 192.033 125.14 193.041 127.259 195.058C129.379 197.074 130.438 199.62 130.438 202.694C130.438 205.769 129.379 208.314 127.259 210.331C125.14 212.347 122.474 213.355 119.261 213.355H106.097V178.645H127.458V184.099H111.81V192.033H119.261ZM119.261 208C120.851 208 122.159 207.521 123.186 206.562C124.212 205.57 124.726 204.281 124.726 202.694C124.726 201.107 124.212 199.835 123.186 198.876C122.159 197.884 120.851 197.388 119.261 197.388H111.81V208H119.261Z" stroke="black" stroke-width="2" mask="url(#path-5-outside-2_439_90)"/>
<path d="M163.925 208.793C160.447 212.264 156.192 214 151.158 214C146.124 214 141.852 212.264 138.342 208.793C134.865 205.289 133.126 201.025 133.126 196C133.126 190.975 134.865 186.727 138.342 183.256C141.852 179.752 146.124 178 151.158 178C156.192 178 160.447 179.752 163.925 183.256C167.435 186.727 169.19 190.975 169.19 196C169.19 201.025 167.435 205.289 163.925 208.793ZM142.366 204.926C144.783 207.273 147.714 208.446 151.158 208.446C154.635 208.446 157.55 207.273 159.901 204.926C162.285 202.545 163.478 199.57 163.478 196C163.478 192.43 162.285 189.471 159.901 187.124C157.55 184.744 154.635 183.554 151.158 183.554C147.681 183.554 144.75 184.744 142.366 187.124C140.014 189.471 138.839 192.43 138.839 196C138.839 199.537 140.014 202.512 142.366 204.926Z" stroke="black" stroke-width="2" mask="url(#path-5-outside-2_439_90)"/>
<path d="M194.867 195.355C196.391 196.149 197.583 197.24 198.444 198.628C199.305 200.017 199.736 201.62 199.736 203.438C199.736 206.281 198.726 208.645 196.705 210.529C194.652 212.413 192.185 213.355 189.304 213.355H174.401V178.645H188.211C191.059 178.645 193.46 179.57 195.414 181.421C197.401 183.273 198.394 185.554 198.394 188.264C198.394 191.24 197.219 193.603 194.867 195.355ZM180.114 184V193.124H188.211C189.469 193.124 190.529 192.694 191.39 191.835C192.251 190.942 192.682 189.851 192.682 188.562C192.682 187.273 192.251 186.198 191.39 185.339C190.529 184.446 189.469 184 188.211 184H180.114ZM189.304 208C190.629 208 191.738 207.537 192.632 206.612C193.559 205.686 194.023 204.529 194.023 203.14C194.023 201.752 193.559 200.595 192.632 199.669C191.738 198.744 190.629 198.281 189.304 198.281H180.114V208H189.304Z" stroke="black" stroke-width="2" mask="url(#path-5-outside-2_439_90)"/>
<path d="M227.373 213.355L224.939 206.364H210.135L207.701 213.355H201.492L214.109 178.645H220.965L233.532 213.355H227.373ZM212.023 201.008H223.051L217.537 185.339L212.023 201.008Z" stroke="black" stroke-width="2" mask="url(#path-5-outside-2_439_90)"/>
<path d="M234.683 208.099C235.776 208.264 236.719 208.231 237.514 208C238.342 207.736 239.021 207.24 239.551 206.512C240.114 205.785 240.528 204.793 240.793 203.537C241.058 202.248 241.19 200.645 241.19 198.727V178.645H264.488V213.355H258.775V184.099H246.903V198.628C246.903 201.702 246.572 204.281 245.909 206.364C245.28 208.413 244.369 209.967 243.177 211.025C241.985 212.05 240.694 212.744 239.303 213.107C237.945 213.438 236.405 213.521 234.683 213.355V208.099Z" stroke="black" stroke-width="2" mask="url(#path-5-outside-2_439_90)"/>
<path d="M292.287 213.355V189.802L275.894 213.355H271.424V178.645H277.136V202.198L293.529 178.645H298V213.355H292.287Z" stroke="black" stroke-width="2" mask="url(#path-5-outside-2_439_90)"/>
<defs>
<filter id="filter0_d_439_90" x="0" y="0" width="303" height="164" filterUnits="userSpaceOnUse" color-interpolation-filters="sRGB">
<feFlood flood-opacity="0" result="BackgroundImageFix"/>
<feColorMatrix in="SourceAlpha" type="matrix" values="0 0 0 0 0 0 0 0 0 0 0 0 0 0 0 0 0 0 127 0" result="hardAlpha"/>
<feOffset dy="4"/>
<feGaussianBlur stdDeviation="2"/>
<feComposite in2="hardAlpha" operator="out"/>
<feColorMatrix type="matrix" values="0 0 0 0 0 0 0 0 0 0 0 0 0 0 0 0 0 0 0.25 0"/>
<feBlend mode="normal" in2="BackgroundImageFix" result="effect1_dropShadow_439_90"/>
<feBlend mode="normal" in="SourceGraphic" in2="effect1_dropShadow_439_90" result="shape"/>
</filter>
</defs>
</svg>
