<svg width="18" height="31" viewBox="0 0 18 31" fill="none" xmlns="http://www.w3.org/2000/svg">
<path d="M17.3608 0.230465C15.8786 0.0725045 14.3889 -0.00436666 12.8983 0.00019136C7.95674 0.00019136 4.88571 3.16202 4.88571 8.25165V11.7072H0.734694C0.539841 11.7072 0.352968 11.785 0.215186 11.9234C0.0774045 12.0618 0 12.2495 0 12.4453V18.1283C0 18.3241 0.0774045 18.5118 0.215186 18.6502C0.352968 18.7886 0.539841 18.8664 0.734694 18.8664H4.88571V30.2619C4.88571 30.4577 4.96312 30.6454 5.1009 30.7838C5.23868 30.9222 5.42556 31 5.62041 31H11.4656C11.6605 31 11.8474 30.9222 11.9851 30.7838C12.1229 30.6454 12.2003 30.4577 12.2003 30.2619V18.8664H16.3381C16.5165 18.8665 16.6888 18.8013 16.8229 18.6832C16.957 18.565 17.0438 18.4019 17.0669 18.2243L17.7972 12.5412C17.8108 12.4371 17.8021 12.3312 17.7717 12.2307C17.7413 12.1302 17.6899 12.0373 17.6209 11.9584C17.5519 11.8794 17.4669 11.8162 17.3716 11.7729C17.2764 11.7296 17.173 11.7072 17.0684 11.7072H12.2003V8.81553C12.2003 7.3837 12.4869 6.78587 14.2692 6.78587H17.2653C17.4602 6.78587 17.647 6.70811 17.7848 6.5697C17.9226 6.43129 18 6.24356 18 6.04782V0.962616C18.0001 0.783428 17.9353 0.610328 17.8177 0.475611C17.7001 0.340893 17.5377 0.253759 17.3608 0.230465V0.230465ZM16.5306 5.30829L14.2678 5.30976C11.0983 5.30976 10.7309 7.31137 10.7309 8.81553V12.4468C10.7309 12.6422 10.8081 12.8298 10.9456 12.9681C11.0831 13.1065 11.2696 13.1844 11.4642 13.1848H16.2338L15.6916 17.3917H11.4656C11.2708 17.3917 11.0839 17.4695 10.9461 17.6079C10.8083 17.7463 10.7309 17.934 10.7309 18.1298V29.5224H6.3551V18.1298C6.3551 17.934 6.2777 17.7463 6.13992 17.6079C6.00213 17.4695 5.81526 17.3917 5.62041 17.3917H1.47086V13.1848H5.62041C5.81526 13.1848 6.00213 13.1071 6.13992 12.9686C6.2777 12.8302 6.3551 12.6425 6.3551 12.4468V8.25165C6.3551 4.00931 8.80163 1.4763 12.8983 1.4763C14.3809 1.4763 15.7195 1.55749 16.5306 1.62834V5.30829V5.30829Z" fill="white"/>
</svg>
